<svg width="55" height="20" viewBox="0 0 55 20" fill="none" xmlns="http://www.w3.org/2000/svg">
<g filter="url(#filter0_d_148_116)">
<path fill-rule="evenodd" clip-rule="evenodd" d="M8.99996 0C12.8656 0 16 3.13626 16 7.00506C16 10.8739 12.8656 14.0101 8.99996 14.0101C5.13398 14.0101 2 10.8739 2 7.00506C2 3.13626 5.13398 0 8.99996 0ZM8.74693 0.52418C7.94835 0.63665 7.18795 1.2788 6.59768 2.35279C6.42647 2.66431 6.27198 3.00846 6.13737 3.38006C6.93998 3.17826 7.82165 3.05926 8.74693 3.04086V0.52418ZM5.54571 3.54836C5.71317 3.02256 5.91794 2.53877 6.15429 2.10875C6.44689 1.57634 6.79418 1.11659 7.18544 0.76347C5.05781 1.38183 3.38081 3.06006 2.76288 5.18926C3.11576 4.79766 3.57516 4.45016 4.10721 4.15736C4.53692 3.92086 5.02029 3.71586 5.54571 3.54836ZM5.37762 4.14036C5.1759 4.94356 5.05702 5.82586 5.03862 6.75186H2.52377C2.63614 5.95266 3.27783 5.19176 4.35105 4.60106C4.66235 4.42966 5.00625 4.27506 5.37762 4.14036ZM5.54476 6.75186C5.56564 5.74136 5.71103 4.79266 5.95154 3.95446C6.78915 3.71376 7.73716 3.56826 8.74693 3.54736V4.64116C8.37025 5.60626 7.60193 6.37496 6.6375 6.75186H5.54476ZM5.03862 7.25826H2.52377C2.63614 8.05746 3.27783 8.81836 4.35105 9.40906C4.66235 9.58036 5.00625 9.73496 5.37762 9.86976C5.1759 9.06656 5.05702 8.18416 5.03862 7.25826ZM5.95154 10.0557C5.71103 9.21746 5.56564 8.26876 5.54476 7.25826H6.6375C7.60193 7.63506 8.37025 8.40386 8.74693 9.36896V10.4628C7.73716 10.4419 6.78915 10.2964 5.95154 10.0557ZM5.54571 10.4618C5.02029 10.2943 4.53692 10.0893 4.10721 9.85276C3.57516 9.55996 3.11576 9.21246 2.76288 8.82086C3.38081 10.95 5.05781 12.6283 7.18544 13.2467C6.79418 12.8935 6.44689 12.4338 6.15429 11.9014C5.91794 11.4714 5.71317 10.9876 5.54571 10.4618ZM8.74693 13.486C7.94835 13.3735 7.18795 12.7314 6.59768 11.6574C6.42647 11.3458 6.27198 11.0016 6.13737 10.6301C6.93998 10.8319 7.82165 10.9509 8.74693 10.9693V13.486ZM10.8144 13.2467C11.2057 12.8935 11.5529 12.4338 11.8457 11.9014C12.0816 11.4714 12.2867 10.9876 12.4543 10.4618C12.9797 10.2943 13.4627 10.0893 13.8926 9.85276C14.4246 9.55996 14.8841 9.21246 15.237 8.82086C14.6189 10.95 12.9422 12.6283 10.8144 13.2467ZM11.8626 10.6301C11.7279 11.0016 11.5731 11.3458 11.4021 11.6574C10.8119 12.7314 10.0515 13.3735 9.2529 13.486V10.9693C10.1782 10.9509 11.0599 10.8319 11.8626 10.6301ZM12.6223 9.86976C12.9937 9.73496 13.3375 9.58036 13.6488 9.40906C14.7223 8.81836 15.3638 8.05746 15.4762 7.25826H12.9612C12.9426 8.18416 12.8236 9.06656 12.6223 9.86976ZM12.4551 7.25826C12.4341 8.26876 12.2892 9.21746 12.0483 10.0557C11.2107 10.2964 10.2627 10.4419 9.2529 10.4628V9.36976C9.6295 8.40436 10.398 7.63516 11.3627 7.25826H12.4551ZM12.9612 6.75186H15.4762C15.3638 5.95266 14.7223 5.19176 13.6488 4.60106C13.3375 4.42966 12.9937 4.27506 12.6223 4.14036C12.8236 4.94356 12.9426 5.82586 12.9612 6.75186ZM12.0483 3.95446C12.2892 4.79266 12.4341 5.74136 12.4551 6.75186H11.3627C10.398 6.37496 9.6295 5.60576 9.2529 4.64036V3.54736C10.2627 3.56826 11.2107 3.71376 12.0483 3.95446ZM12.4543 3.54836C12.9797 3.71586 13.4627 3.92086 13.8926 4.15736C14.4246 4.45016 14.8841 4.79766 15.237 5.18926C14.6189 3.06006 12.9422 1.38183 10.8144 0.76347C11.2057 1.11659 11.5529 1.57634 11.8457 2.10875C12.0816 2.53877 12.2867 3.02256 12.4543 3.54836ZM9.2529 0.52418C10.0515 0.63665 10.8119 1.2788 11.4021 2.35279C11.5731 2.66431 11.7279 3.00846 11.8626 3.38006C11.0599 3.17826 10.1782 3.05926 9.2529 3.04086V0.52418Z" fill="white"/>
</g>
<g filter="url(#filter1_d_148_116)">
<path d="M19 12.7401H21.4258V0H19V12.7401Z" fill="white"/>
</g>
<g filter="url(#filter2_d_148_116)">
<path d="M27.3573 13.0212C30.1933 13.0212 32.1374 10.9488 32.1374 8.2616C32.1374 5.5744 30.1933 3.50195 27.3573 3.50195C24.5213 3.50195 22.5771 5.5744 22.5771 8.2616C22.5771 10.9488 24.5213 13.0212 27.3573 13.0212ZM27.3573 11.1947C25.859 11.1947 25.0385 10.0179 25.0385 8.2616C25.0385 6.5053 25.859 5.311 27.3573 5.311C28.8377 5.311 29.676 6.5053 29.676 8.2616C29.676 10.0179 28.8377 11.1947 27.3573 11.1947Z" fill="white"/>
</g>
<g filter="url(#filter3_d_148_116)">
<path d="M37.2953 16.0001C38.6509 16.0001 39.8281 15.6796 40.595 14.9674C41.2728 14.3443 41.6831 13.4719 41.6831 12.1901V3.7512H39.3465V4.7126H39.3108C38.7579 3.94707 37.9196 3.50195 36.778 3.50195C34.4593 3.50195 32.8184 5.2467 32.8184 7.9706C32.8184 10.7302 34.8161 12.3325 36.8494 12.3325C38.0088 12.3325 38.7044 11.8696 39.2395 11.2643H39.293V12.2613C39.293 13.5076 38.633 14.1663 37.2596 14.1663C36.1359 14.1663 35.6187 13.7212 35.4225 13.1515H33.0145C33.2643 14.9319 34.7982 16.0001 37.2953 16.0001ZM37.2596 10.3919C36.0111 10.3919 35.1906 9.4839 35.1906 7.9351C35.1906 6.4039 36.0111 5.4426 37.2418 5.4426C38.7044 5.4426 39.4178 6.582 39.4178 7.9173C39.4178 9.2703 38.7936 10.3919 37.2596 10.3919Z" fill="white"/>
</g>
<g filter="url(#filter4_d_148_116)">
<path d="M47.58 13.0212C50.416 13.0212 52.3602 10.9488 52.3602 8.2616C52.3602 5.5744 50.416 3.50195 47.58 3.50195C44.744 3.50195 42.7998 5.5744 42.7998 8.2616C42.7998 10.9488 44.744 13.0212 47.58 13.0212ZM47.58 11.1947C46.0817 11.1947 45.2613 10.0179 45.2613 8.2616C45.2613 6.5053 46.0817 5.311 47.58 5.311C49.0604 5.311 49.8988 6.5053 49.8988 8.2616C49.8988 10.0179 49.0604 11.1947 47.58 11.1947Z" fill="white"/>
</g>
<defs>
<filter id="filter0_d_148_116" x="0" y="0" width="18" height="18.0101" filterUnits="userSpaceOnUse" color-interpolation-filters="sRGB">
<feFlood flood-opacity="0" result="BackgroundImageFix"/>
<feColorMatrix in="SourceAlpha" type="matrix" values="0 0 0 0 0 0 0 0 0 0 0 0 0 0 0 0 0 0 127 0" result="hardAlpha"/>
<feOffset dy="2"/>
<feGaussianBlur stdDeviation="1"/>
<feComposite in2="hardAlpha" operator="out"/>
<feColorMatrix type="matrix" values="0 0 0 0 0 0 0 0 0 0 0 0 0 0 0 0 0 0 0.25 0"/>
<feBlend mode="normal" in2="BackgroundImageFix" result="effect1_dropShadow_148_116"/>
<feBlend mode="normal" in="SourceGraphic" in2="effect1_dropShadow_148_116" result="shape"/>
</filter>
<filter id="filter1_d_148_116" x="17" y="0" width="6.42578" height="16.7401" filterUnits="userSpaceOnUse" color-interpolation-filters="sRGB">
<feFlood flood-opacity="0" result="BackgroundImageFix"/>
<feColorMatrix in="SourceAlpha" type="matrix" values="0 0 0 0 0 0 0 0 0 0 0 0 0 0 0 0 0 0 127 0" result="hardAlpha"/>
<feOffset dy="2"/>
<feGaussianBlur stdDeviation="1"/>
<feComposite in2="hardAlpha" operator="out"/>
<feColorMatrix type="matrix" values="0 0 0 0 0 0 0 0 0 0 0 0 0 0 0 0 0 0 0.25 0"/>
<feBlend mode="normal" in2="BackgroundImageFix" result="effect1_dropShadow_148_116"/>
<feBlend mode="normal" in="SourceGraphic" in2="effect1_dropShadow_148_116" result="shape"/>
</filter>
<filter id="filter2_d_148_116" x="20.5771" y="3.50195" width="13.5605" height="13.5193" filterUnits="userSpaceOnUse" color-interpolation-filters="sRGB">
<feFlood flood-opacity="0" result="BackgroundImageFix"/>
<feColorMatrix in="SourceAlpha" type="matrix" values="0 0 0 0 0 0 0 0 0 0 0 0 0 0 0 0 0 0 127 0" result="hardAlpha"/>
<feOffset dy="2"/>
<feGaussianBlur stdDeviation="1"/>
<feComposite in2="hardAlpha" operator="out"/>
<feColorMatrix type="matrix" values="0 0 0 0 0 0 0 0 0 0 0 0 0 0 0 0 0 0 0.25 0"/>
<feBlend mode="normal" in2="BackgroundImageFix" result="effect1_dropShadow_148_116"/>
<feBlend mode="normal" in="SourceGraphic" in2="effect1_dropShadow_148_116" result="shape"/>
</filter>
<filter id="filter3_d_148_116" x="30.8184" y="3.50195" width="12.8643" height="16.4982" filterUnits="userSpaceOnUse" color-interpolation-filters="sRGB">
<feFlood flood-opacity="0" result="BackgroundImageFix"/>
<feColorMatrix in="SourceAlpha" type="matrix" values="0 0 0 0 0 0 0 0 0 0 0 0 0 0 0 0 0 0 127 0" result="hardAlpha"/>
<feOffset dy="2"/>
<feGaussianBlur stdDeviation="1"/>
<feComposite in2="hardAlpha" operator="out"/>
<feColorMatrix type="matrix" values="0 0 0 0 0 0 0 0 0 0 0 0 0 0 0 0 0 0 0.25 0"/>
<feBlend mode="normal" in2="BackgroundImageFix" result="effect1_dropShadow_148_116"/>
<feBlend mode="normal" in="SourceGraphic" in2="effect1_dropShadow_148_116" result="shape"/>
</filter>
<filter id="filter4_d_148_116" x="40.7998" y="3.50195" width="13.5605" height="13.5193" filterUnits="userSpaceOnUse" color-interpolation-filters="sRGB">
<feFlood flood-opacity="0" result="BackgroundImageFix"/>
<feColorMatrix in="SourceAlpha" type="matrix" values="0 0 0 0 0 0 0 0 0 0 0 0 0 0 0 0 0 0 127 0" result="hardAlpha"/>
<feOffset dy="2"/>
<feGaussianBlur stdDeviation="1"/>
<feComposite in2="hardAlpha" operator="out"/>
<feColorMatrix type="matrix" values="0 0 0 0 0 0 0 0 0 0 0 0 0 0 0 0 0 0 0.25 0"/>
<feBlend mode="normal" in2="BackgroundImageFix" result="effect1_dropShadow_148_116"/>
<feBlend mode="normal" in="SourceGraphic" in2="effect1_dropShadow_148_116" result="shape"/>
</filter>
</defs>
</svg>
