<svg width="763" height="656" viewBox="0 0 763 656" fill="none" xmlns="http://www.w3.org/2000/svg">
<path d="M81.7226 0.4226C83.0402 0.409946 84.3578 0.397292 85.7154 0.384254C87.1685 0.376111 88.6215 0.368482 90.0746 0.36132C90.8146 0.356497 91.5546 0.351674 92.3169 0.346704C97.9679 0.310189 103.619 0.294747 109.27 0.287102C110.512 0.284934 110.512 0.284934 111.78 0.282722C139.164 0.243959 166.204 1.08109 193.395 4.5996C194.077 4.68637 194.759 4.77314 195.462 4.86254C203.482 5.88916 211.447 7.11748 219.395 8.5996C220.24 8.75397 221.085 8.90833 221.955 9.06738C277.097 19.3258 332.044 42.4005 374.395 79.5996C375.831 80.8307 377.268 82.0602 378.707 83.2871C379.594 84.0502 380.481 84.8134 381.395 85.5996C381.822 85.1381 382.248 84.6766 382.688 84.2012C422.067 43.117 486.83 19.9042 541.395 9.5996C542.693 9.34533 542.693 9.34533 544.018 9.08593C550.734 7.79491 557.475 6.78281 564.255 5.88403C565.748 5.68553 567.242 5.48396 568.735 5.28002C596.716 1.47542 624.49 0.0913492 652.697 0.0427626C655.14 0.0371138 657.582 0.0246626 660.024 0.0111006C663.896 -0.00748335 667.766 -0.00212648 671.638 0.0226305C673.075 0.0295973 674.512 0.030397 675.949 0.0246103C677.932 0.0190686 679.915 0.041991 681.898 0.0661543C683.57 0.0754521 683.57 0.0754521 685.276 0.0849379C690.21 0.899194 693.314 3.49319 696.746 7.00634C699.314 12.6009 698.885 18.0127 698.786 24.0918C698.777 26.0434 698.777 26.0434 698.768 28.0344C698.753 31.4772 698.714 34.9193 698.67 38.3617C698.629 41.881 698.61 45.4004 698.59 48.9199C698.547 55.8134 698.479 62.7065 698.395 69.5996C698.991 69.5952 699.587 69.5907 700.201 69.5861C706.431 69.5417 712.661 69.5117 718.891 69.4897C721.213 69.4797 723.534 69.4661 725.856 69.4487C729.203 69.4243 732.549 69.4131 735.895 69.4043C736.925 69.394 737.956 69.3836 739.018 69.373C752.624 69.3709 752.624 69.3709 758.27 73.9121C762.275 78.9776 762.686 83.4426 762.652 89.7513C762.656 90.5718 762.659 91.3924 762.663 92.2378C762.672 94.9991 762.667 97.7602 762.662 100.522C762.666 102.517 762.671 104.512 762.676 106.507C762.688 111.998 762.688 117.49 762.686 122.981C762.685 128.9 762.696 134.819 762.706 140.738C762.722 152.338 762.728 163.938 762.729 175.538C762.73 184.965 762.734 194.392 762.74 203.819C762.742 206.531 762.744 209.244 762.746 211.957C762.746 212.968 762.746 212.968 762.747 214C762.759 232.971 762.767 251.942 762.766 270.913C762.766 271.628 762.766 272.344 762.766 273.081C762.766 276.707 762.766 280.333 762.766 283.958C762.766 285.039 762.766 285.039 762.766 286.141C762.766 287.597 762.766 289.053 762.765 290.509C762.764 313.168 762.779 335.826 762.807 358.484C762.837 383.935 762.855 409.387 762.853 434.838C762.853 437.552 762.852 440.266 762.852 442.979C762.852 443.981 762.852 443.981 762.852 445.004C762.852 455.093 762.863 465.182 762.879 475.272C762.897 486.746 762.902 498.221 762.888 509.695C762.881 515.551 762.881 521.407 762.899 527.264C762.914 532.623 762.912 537.983 762.894 543.343C762.891 545.283 762.895 547.223 762.906 549.163C762.92 551.799 762.909 554.434 762.893 557.07C762.903 557.824 762.913 558.578 762.923 559.355C762.839 565.616 760.978 570.819 756.673 575.453C750.726 579.148 745.383 579.292 738.499 579.201C737.316 579.205 736.134 579.209 734.915 579.214C731.649 579.221 728.384 579.205 725.118 579.18C721.59 579.158 718.062 579.166 714.534 579.169C708.426 579.172 702.32 579.156 696.213 579.128C687.383 579.088 678.554 579.075 669.724 579.068C655.398 579.057 641.071 579.024 626.745 578.977C612.831 578.931 598.916 578.896 585.002 578.874C584.144 578.873 583.286 578.872 582.402 578.87C578.097 578.864 573.791 578.857 569.486 578.851C533.789 578.799 498.092 578.711 462.395 578.6C462.402 579.633 462.409 580.667 462.416 581.733C462.421 583.1 462.427 584.468 462.432 585.836C462.44 586.856 462.44 586.856 462.447 587.897C462.494 604.131 454.881 619.871 443.657 631.4C442.91 632.126 442.164 632.852 441.395 633.6C440.384 634.642 440.384 634.642 439.352 635.705C423.115 651.454 400.632 655.993 378.768 655.9C355.687 655.463 336.601 648.432 319.582 632.35C307.073 619.276 299.2 601.976 299.352 583.764C299.358 582.791 299.364 581.819 299.371 580.817C299.379 580.085 299.387 579.353 299.395 578.6C298.489 578.602 298.489 578.602 297.564 578.605C261.748 578.717 225.933 578.803 190.117 578.855C185.816 578.861 181.516 578.868 177.215 578.874C176.359 578.876 175.502 578.877 174.62 578.878C160.758 578.9 146.896 578.939 133.034 578.985C118.809 579.032 104.585 579.06 90.3601 579.07C81.5832 579.077 72.8067 579.099 64.0299 579.139C58.0106 579.166 51.9915 579.174 45.9722 579.167C42.4997 579.164 39.0277 579.169 35.5553 579.196C31.7874 579.22 28.0206 579.215 24.2526 579.201C23.1592 579.215 22.0658 579.23 20.9393 579.245C14.14 579.178 9.66146 578.007 4.39495 573.6C-0.0484514 568.87 0.249103 563.799 0.263527 557.584C0.261474 556.766 0.259416 555.948 0.257301 555.105C0.251618 552.346 0.253092 549.588 0.254509 546.829C0.251926 544.838 0.248914 542.848 0.245506 540.857C0.237424 535.373 0.235646 529.888 0.234909 524.404C0.233061 518.494 0.225514 512.585 0.218773 506.675C0.204472 493.074 0.198665 479.472 0.194084 465.87C0.191749 459.15 0.188144 452.43 0.184387 445.709C0.171552 422.709 0.160835 399.708 0.157387 376.708C0.157165 375.264 0.156937 373.82 0.156715 372.376C0.156495 370.929 0.15628 369.481 0.156059 368.034C0.155617 365.13 0.155166 362.226 0.154716 359.323C0.154607 358.603 0.154501 357.883 0.154388 357.141C0.150757 333.79 0.13483 310.439 0.111526 287.089C0.0869381 262.405 0.0732094 237.722 0.0720139 213.038C0.0718424 210.33 0.0716282 207.621 0.0713806 204.912C0.0713248 204.245 0.0712702 203.578 0.0712128 202.891C0.0701328 192.816 0.0608174 182.742 0.0471954 172.667C0.0318196 161.21 0.0266606 149.753 0.034935 138.296C0.0388503 132.448 0.0378637 126.6 0.0238724 120.753C0.0111865 115.401 0.0122885 110.051 0.0244675 104.699C0.0264337 102.761 0.0233061 100.823 0.0146255 98.8852C0.00358546 96.2543 0.0109773 93.6239 0.0230103 90.993C0.0154151 90.2376 0.00782535 89.4822 0 88.704C0.0601892 82.6228 1.49178 78.2077 5.08245 73.2871C11.3481 68.7149 19.4925 69.3301 26.895 69.4043C27.9712 69.4071 29.0475 69.4099 30.1564 69.4129C33.5694 69.424 36.9821 69.4491 40.395 69.4746C42.7192 69.4846 45.0434 69.4938 47.3676 69.5019C53.0435 69.5239 58.7192 69.5573 64.395 69.5996C64.3883 68.8863 64.3816 68.173 64.3748 67.4381C64.3145 60.7 64.2689 53.962 64.2395 47.2237C64.2239 43.7598 64.2027 40.2962 64.1686 36.8325C64.1297 32.846 64.1152 28.8597 64.102 24.873C64.0865 23.6353 64.071 22.3976 64.0551 21.1224C64.053 10.3229 64.053 10.3229 67.395 5.5996C72.0909 1.25584 75.4394 0.476178 81.7226 0.4226Z" fill="#632B02"/>
<path d="M96.395 33.5996C142.219 33.5996 142.219 33.5996 157.77 34.7871C158.669 34.8517 159.568 34.9164 160.495 34.983C177.965 36.2501 195.163 38.4714 212.395 41.5996C213.481 41.7928 214.566 41.986 215.685 42.1851C239.295 46.4693 262.212 53.49 284.395 62.5996C285.112 62.8919 285.829 63.1842 286.567 63.4854C302.416 70.0061 317.308 78.1602 331.674 87.4849C332.836 88.2378 334.006 88.9794 335.183 89.7104C336.621 90.6214 338.014 91.6043 339.395 92.5996C339.395 93.2596 339.395 93.9196 339.395 94.5996C339.951 94.8484 340.506 95.0972 341.079 95.3535C343.813 96.8244 346.049 98.5757 348.458 100.537C349.315 101.227 350.172 101.916 351.055 102.627C351.544 103.065 352.032 103.503 352.536 103.955C354.006 105.255 355.534 106.49 357.081 107.698C362.115 112.021 365.845 115.403 366.638 122.32C366.838 126.088 366.797 129.831 366.718 133.601C366.723 135.315 366.732 137.028 366.746 138.741C366.771 143.426 366.727 148.108 366.672 152.793C366.624 157.852 366.64 162.912 366.649 167.972C366.654 176.731 366.62 185.49 366.558 194.249C366.469 206.912 366.44 219.576 366.426 232.24C366.402 252.787 366.329 273.335 366.225 293.882C366.124 313.838 366.046 333.795 365.999 353.751C365.995 355.597 365.995 355.597 365.991 357.481C365.976 363.655 365.962 369.83 365.949 376.004C365.835 427.203 365.641 478.401 365.395 529.6C364.844 529.185 364.293 528.77 363.726 528.343C362.643 527.529 362.643 527.529 361.539 526.699C360.823 526.161 360.107 525.622 359.37 525.068C283.527 468.692 187.367 460.994 96.395 458.6C96.395 318.35 96.395 178.1 96.395 33.5996Z" fill="#FEFEFE"/>
<path d="M665.395 33.5996C665.395 173.85 665.395 314.1 665.395 458.6C643.615 459.095 643.615 459.095 621.395 459.6C608.369 460.46 595.383 461.342 582.395 462.6C581.301 462.705 580.207 462.81 579.08 462.919C553.017 465.574 526.315 470.49 501.395 478.6C500.358 478.927 499.32 479.254 498.251 479.591C477.154 486.251 456.965 494.275 437.395 504.6C436.602 505.015 435.809 505.43 434.992 505.857C424.973 511.13 415.423 516.635 406.34 523.408C403.421 525.58 400.429 527.592 397.395 529.6C397.235 477.249 397.111 424.899 397.038 372.549C397.029 366.371 397.02 360.192 397.01 354.014C397.009 352.784 397.007 351.554 397.005 350.286C396.974 330.362 396.919 310.437 396.855 290.513C396.789 270.073 396.751 249.634 396.736 229.194C396.727 216.578 396.696 203.963 396.64 191.348C396.603 182.7 396.591 174.053 396.6 165.406C396.605 160.414 396.598 155.423 396.561 150.432C396.526 145.862 396.525 141.293 396.549 136.723C396.552 135.07 396.543 133.417 396.521 131.764C396.347 117.883 396.347 117.883 400.705 112.786C401.899 111.683 403.13 110.619 404.395 109.6C405.691 108.408 406.985 107.216 408.278 106.021C421.025 95.2038 434.911 85.9062 449.395 77.5996C450.089 77.1932 450.782 76.7869 451.497 76.3682C485.207 56.7837 523.343 47.2994 561.395 40.5996C562.725 40.3481 564.055 40.0959 565.385 39.843C577.701 37.5674 590.064 36.5465 602.549 35.6643C606.033 35.4156 609.516 35.1462 612.998 34.875C630.601 33.5976 647.632 33.5996 665.395 33.5996Z" fill="#FEFEFE"/>
<path d="M33.395 103.6C43.625 103.6 53.855 103.6 64.395 103.6C64.3987 108.309 64.4023 113.019 64.4061 117.872C64.4413 161.04 64.4963 204.208 64.5729 247.376C64.583 253.031 64.5928 258.687 64.6025 264.342C64.6045 265.468 64.6064 266.594 64.6084 267.754C64.6395 285.995 64.6564 304.236 64.6682 322.477C64.6806 341.188 64.7081 359.899 64.7496 378.61C64.7748 390.159 64.7881 401.709 64.7864 413.259C64.7864 421.174 64.801 429.089 64.8272 437.005C64.8419 441.574 64.85 446.144 64.8408 450.714C64.8326 454.896 64.8426 459.078 64.8674 463.261C64.8731 464.775 64.872 466.289 64.8635 467.803C64.853 469.861 64.8671 471.916 64.8872 473.974C64.8887 475.117 64.8902 476.259 64.8918 477.437C65.5131 481.342 66.9667 483.514 69.395 486.6C74.8057 490.522 79.6591 490.747 86.1802 490.811C87.8167 490.836 89.4533 490.863 91.0898 490.89C91.9616 490.903 92.8333 490.917 93.7314 490.93C174.79 492.246 259.784 498.325 329.395 544.6C329.395 544.93 329.395 545.26 329.395 545.6C231.715 545.6 134.035 545.6 33.395 545.6C33.395 399.74 33.395 253.88 33.395 103.6Z" fill="#FEFEFE"/>
<path d="M698.395 103.6C708.625 103.6 718.855 103.6 729.395 103.6C729.395 249.46 729.395 395.32 729.395 545.6C632.045 545.6 534.695 545.6 434.395 545.6C461.591 523.843 499.853 511.263 533.395 503.6C534.363 503.378 535.331 503.157 536.329 502.929C548.639 500.175 561.019 498.091 573.52 496.412C574.642 496.257 575.763 496.102 576.918 495.943C596.866 493.419 617.053 492.592 637.141 492.072C637.83 492.054 638.518 492.036 639.228 492.018C645.535 491.855 651.843 491.703 658.151 491.571C661.669 491.496 665.186 491.407 668.703 491.311C670.644 491.261 672.585 491.227 674.526 491.193C682.152 490.978 688.716 490.618 694.833 485.6C697.658 481.983 697.523 478.776 697.534 474.343C697.539 473.023 697.545 471.704 697.55 470.345C697.551 468.872 697.552 467.399 697.553 465.926C697.558 464.369 697.563 462.811 697.568 461.254C697.582 456.962 697.589 452.67 697.596 448.379C697.604 443.755 697.617 439.131 697.63 434.508C697.652 426.493 697.67 418.478 697.686 410.464C697.709 398.876 697.737 387.288 697.766 375.7C697.814 356.9 697.857 338.101 697.898 319.302C697.937 301.037 697.978 282.772 698.023 264.507C698.027 262.819 698.027 262.819 698.031 261.097C698.045 255.451 698.058 249.806 698.072 244.161C698.186 197.307 698.293 150.453 698.395 103.6Z" fill="#FCFDFE"/>
<path d="M613.395 318.6C616.68 322.631 618.018 326.416 617.715 331.615C616.971 336.229 615.39 339.577 612.145 342.912C606.708 346.248 600.589 346.981 594.348 347.713C592.779 347.908 591.21 348.103 589.64 348.298C588.826 348.398 588.011 348.498 587.171 348.601C546.773 353.584 501.011 360.077 465.669 381.838C460.601 384.565 456.007 384.379 450.395 383.6C446.359 381.617 443.745 379.434 441.395 375.6C439.729 370.602 439.426 365.414 441.161 360.377C446.067 351.41 456.997 347.615 465.958 343.787C466.945 343.363 467.932 342.94 468.95 342.503C486.85 334.932 504.963 328.749 523.863 324.215C526.114 323.668 528.353 323.087 530.59 322.486C548.836 317.705 567.889 315.814 586.645 314.287C587.697 314.199 588.749 314.11 589.832 314.019C606.809 312.78 606.809 312.78 613.395 318.6Z" fill="#632B02"/>
<path d="M168.555 313.885C169.329 313.94 170.103 313.996 170.901 314.053C173.421 314.24 175.939 314.449 178.457 314.662C179.324 314.732 180.19 314.803 181.083 314.875C224.504 318.435 265.869 329.16 305.395 347.6C306.302 348.016 307.21 348.433 308.145 348.863C309.03 349.284 309.916 349.705 310.828 350.139C312.016 350.699 312.016 350.699 313.229 351.27C317.825 354.091 320.715 358.56 322.395 363.6C323.235 369.682 322.397 373.93 318.797 378.935C316.159 382.065 314.209 383.384 310.088 383.873C302.368 384.164 297.309 382.207 290.582 378.6C255.38 360.831 216.857 354.01 178.085 349.003C175.195 348.629 172.306 348.248 169.417 347.865C167.461 347.608 165.505 347.36 163.548 347.112C162.394 346.955 161.24 346.797 160.051 346.635C159.053 346.503 158.054 346.372 157.026 346.236C152.072 345.037 148.847 341.975 146.239 337.709C144.243 332.719 144.836 327.188 146.582 322.225C152.036 314.326 159.439 313.126 168.555 313.885Z" fill="#632B02"/>
<path d="M594.603 227.463C601.573 227.047 607.788 226.971 613.395 231.6C617.425 236.537 618.042 240.691 617.774 247.014C617.218 250.808 616.029 252.83 613.395 255.6C607.39 260.037 601.365 260.598 594.05 261.381C591.269 261.681 588.492 262.019 585.715 262.355C584.3 262.526 582.885 262.696 581.469 262.864C541.631 267.606 498.737 276.513 463.403 296.35C459.163 298.112 455.501 298.242 451.102 296.901C446.332 294.412 442.786 291.962 440.645 286.787C439.809 279.473 440.113 275.617 444.395 269.6C479.896 237.981 549.461 230.268 594.603 227.463Z" fill="#632B02"/>
<path d="M272.899 247.883C282.82 251.285 292.517 255.194 302.145 259.349C303.188 259.797 304.23 260.245 305.304 260.706C311.815 263.608 317.163 266.326 321.27 272.349C323.218 277.978 322.946 282.654 321.333 288.349C318.16 293.671 314.639 295.903 308.77 297.724C302.572 298.114 296.941 295.033 291.395 292.599C276.339 285.998 261.069 280.565 245.395 275.599C244.664 275.367 243.933 275.135 243.18 274.896C239.28 273.676 235.357 272.602 231.395 271.599C230.652 271.409 229.908 271.219 229.143 271.023C208.784 265.889 187.982 262.872 167.053 261.282C159.992 260.713 153.562 259.91 148.395 254.599C145.462 249.339 144.836 245.468 145.395 239.599C156.497 208.145 248.549 239.887 272.899 247.883Z" fill="#632B02"/>
<path d="M208.082 146.412C208.865 146.544 209.647 146.675 210.453 146.81C223.211 148.962 235.872 151.319 248.395 154.6C249.326 154.843 250.256 155.086 251.215 155.336C270.582 160.488 289.686 167.092 307.707 175.912C308.329 176.213 308.95 176.514 309.59 176.824C315.717 179.971 319.939 184.137 322.395 190.6C323.154 196.458 321.77 200.852 318.395 205.6C313.644 209.381 309.737 210.973 303.621 210.885C299.529 210.36 296.139 208.427 292.52 206.537C290.83 205.699 289.137 204.866 287.442 204.037C286.17 203.415 286.17 203.415 284.873 202.779C278.222 199.614 271.331 197.065 264.395 194.6C263.502 194.282 262.608 193.963 261.688 193.635C232.528 183.419 202.308 177.827 171.579 175.057C170.711 174.977 169.844 174.896 168.951 174.814C167.41 174.678 165.869 174.558 164.325 174.458C158.258 173.952 152.914 172.051 148.52 167.776C145.447 162.686 144.405 158.518 145.395 152.6C147.219 147.33 149.967 144.762 154.395 141.6C168.567 136.356 193.298 143.919 208.082 146.412Z" fill="#632B02"/>
<path d="M612.895 144.912C617.342 149.693 617.842 153.789 617.719 160.162C617.242 163.75 615.714 165.882 613.395 168.599C612.962 169.177 612.529 169.754 612.082 170.349C606.939 174.159 599.272 174.224 593.125 174.896C591.094 175.131 589.063 175.367 587.032 175.603C585.978 175.724 584.924 175.846 583.838 175.971C565.364 178.12 547.336 180.567 529.395 185.599C528.387 185.874 527.379 186.149 526.341 186.431C519.316 188.354 512.343 190.415 505.395 192.599C504.537 192.868 503.68 193.137 502.796 193.414C491.319 197.075 480.476 201.642 469.701 207.044C462.554 210.506 456.819 212.131 449.145 209.474C445.314 206.862 442.493 203.796 440.395 199.599C439.851 194.645 439.83 190.728 442.082 186.224C446.644 181.047 451.735 178.215 457.895 175.349C459.149 174.765 459.149 174.765 460.428 174.168C478.851 165.714 497.818 159.778 517.395 154.599C518.4 154.329 519.404 154.058 520.439 153.78C539.761 148.658 559.519 145.917 579.27 143.017C580.142 142.888 581.014 142.76 581.912 142.627C605.497 139.22 605.497 139.22 612.895 144.912Z" fill="#632B02"/>
<path d="M330 578C363.33 578 396.66 578 431 578C431 590.231 427.226 600.042 419.105 609.117C407.692 620.34 393.682 622.264 378.395 622.247C364.468 622.079 352.003 618.326 341.559 608.684C333.013 599.453 331.231 590.306 330 578Z" fill="#FDFEFE"/>
</svg>
