<svg width="512" height="512" viewBox="0 0 512 512" fill="none" xmlns="http://www.w3.org/2000/svg">
<g clip-path="url(#clip0_68_720)">
<path d="M210.187 128.499C211.457 128.489 212.727 128.479 214.036 128.469C215.441 128.478 216.847 128.488 218.252 128.498C219.734 128.494 221.216 128.489 222.697 128.482C226.72 128.468 230.743 128.479 234.765 128.495C238.974 128.509 243.183 128.503 247.392 128.499C254.46 128.497 261.528 128.51 268.596 128.533C276.769 128.56 284.942 128.562 293.115 128.55C300.976 128.539 308.836 128.545 316.697 128.559C320.043 128.565 323.389 128.565 326.735 128.56C330.675 128.556 334.614 128.566 338.554 128.587C340.001 128.593 341.447 128.593 342.893 128.588C344.867 128.582 346.84 128.597 348.814 128.612C349.918 128.615 351.023 128.617 352.161 128.619C355.362 129.048 356.724 129.74 359 132C360.027 135.079 360.131 137.192 360.141 140.418C360.146 141.544 360.152 142.67 360.158 143.829C360.16 145.683 360.16 145.683 360.161 147.574C360.166 148.875 360.171 150.176 360.176 151.517C360.189 155.09 360.196 158.662 360.2 162.235C360.203 164.47 360.207 166.705 360.212 168.94C360.226 175.939 360.235 182.939 360.239 189.939C360.244 198.005 360.261 206.07 360.29 214.135C360.312 220.377 360.322 226.619 360.323 232.861C360.324 236.585 360.33 240.309 360.348 244.033C360.368 248.195 360.363 252.357 360.357 256.52C360.366 257.741 360.375 258.963 360.385 260.222C360.343 268.807 359.752 277.658 353.813 284.375C351.166 287.401 351 287.656 351 292C351.578 292.722 352.155 293.444 352.75 294.187C359.831 303.038 360.236 312.481 360.295 323.369C360.307 324.819 360.327 326.268 360.357 327.718C360.587 338.96 359.542 348.771 352.75 358.187C352.229 358.923 351.709 359.659 351.172 360.418C350.785 360.94 350.399 361.462 350 362C350.398 362.496 350.797 362.992 351.207 363.504C359.099 373.623 360.205 382.471 360.24 395.072C360.25 397.164 360.281 399.254 360.313 401.345C360.387 410.618 360.268 420.075 353.813 427.375C351.166 430.401 351 430.656 351 435C352.322 436.959 353.83 438.645 355.395 440.414C360.94 449.346 360.467 459.342 360.391 469.495C360.375 472.06 360.391 474.624 360.41 477.189C360.438 497.634 360.438 497.634 352.893 505.324C344.492 512.76 335.063 512.72 324.418 512.647C322.758 512.654 321.098 512.662 319.438 512.673C314.954 512.696 310.471 512.687 305.988 512.671C301.281 512.659 296.575 512.67 291.868 512.678C283.966 512.687 276.065 512.675 268.163 512.652C259.046 512.624 249.929 512.633 240.812 512.661C232.965 512.684 225.117 512.687 217.27 512.674C212.592 512.666 207.913 512.665 203.235 512.681C198.835 512.696 194.436 512.686 190.037 512.657C188.428 512.65 186.82 512.652 185.211 512.663C175.309 512.725 166.752 512.23 159.102 505.274C153.029 499.014 151.535 491.523 151.567 483.109C151.561 482.283 151.556 481.457 151.551 480.607C151.544 478.869 151.546 477.131 151.554 475.393C151.563 472.77 151.534 470.15 151.502 467.527C151.455 456.412 151.77 445.679 159.25 436.75C160.158 435.842 161.065 434.935 162 434C160.717 431.268 159.455 429.301 157.563 426.875C151.7 418.659 151.518 409.324 151.609 399.55C151.625 397.503 151.609 395.457 151.59 393.41C151.573 383.819 152.241 374.947 158.188 367.062C160.633 363.916 160.633 363.916 161 360C159.648 357.82 158.133 355.801 156.606 353.742C151.845 345.61 151.497 337.568 151.554 328.308C151.563 326.201 151.534 324.097 151.502 321.99C151.446 311.488 152.595 301.006 159.75 292.75C160.364 292.023 160.977 291.296 161.61 290.547C162.068 290.036 162.527 289.526 163 289C162.34 289 161.68 289 161 289C159.344 286.875 159.344 286.875 157.5 284C156.892 283.072 156.283 282.144 155.656 281.187C152.333 274.792 151.696 268.555 151.735 261.484C151.733 260.706 151.731 259.928 151.729 259.126C151.727 257.496 151.731 255.865 151.739 254.235C151.75 251.742 151.739 249.25 151.727 246.758C151.728 245.166 151.731 243.575 151.735 241.984C151.73 241.242 151.726 240.501 151.722 239.737C151.756 236.028 151.791 233.068 154 230C157.516 227.656 158.943 227.745 163.105 227.732C165.02 227.72 165.02 227.72 166.975 227.706C168.394 227.707 169.812 227.708 171.23 227.709C172.722 227.703 174.213 227.696 175.705 227.689C179.758 227.671 183.812 227.667 187.866 227.665C191.248 227.663 194.63 227.656 198.013 227.649C205.991 227.633 213.97 227.628 221.948 227.629C230.183 227.63 238.418 227.609 246.653 227.578C253.719 227.552 260.786 227.541 267.853 227.542C272.075 227.543 276.297 227.537 280.519 227.516C284.489 227.496 288.459 227.496 292.43 227.511C293.887 227.513 295.345 227.508 296.803 227.496C298.791 227.481 300.78 227.492 302.769 227.505C304.439 227.504 304.439 227.504 306.143 227.502C309.658 228.114 310.803 229.25 313 232C314.427 234.853 314.31 236.834 314 240C312.2 242.7 310.916 244.542 308 246C306.176 246.093 304.348 246.122 302.521 246.12C301.357 246.121 300.193 246.123 298.994 246.124C297.71 246.121 296.427 246.117 295.105 246.113C293.745 246.113 292.385 246.113 291.025 246.114C287.327 246.114 283.629 246.108 279.931 246.101C276.069 246.095 272.206 246.094 268.344 246.093C261.027 246.09 253.71 246.082 246.393 246.072C238.065 246.061 229.736 246.055 221.407 246.05C204.271 246.04 187.136 246.022 170 246C170.082 249.542 170.194 253.083 170.313 256.625C170.335 257.624 170.358 258.623 170.381 259.652C170.583 265.198 171.029 269.158 174 274C174.33 274.99 174.66 275.98 175 277C177.376 278.184 177.376 278.184 180 279C180.99 279.33 181.98 279.66 183 280C185.91 280.1 188.797 280.143 191.707 280.142C192.596 280.145 193.486 280.149 194.403 280.152C196.336 280.159 198.269 280.165 200.203 280.168C203.262 280.176 206.322 280.191 209.382 280.21C218.081 280.262 226.781 280.31 235.481 280.326C240.802 280.336 246.122 280.365 251.442 280.407C253.47 280.419 255.497 280.424 257.525 280.422C260.362 280.42 263.198 280.442 266.035 280.47C266.872 280.463 267.71 280.457 268.573 280.45C272.576 280.514 274.538 280.706 277.998 282.908C280.442 285.461 280.957 286.339 281.188 289.875C281.003 292.946 280.706 294.486 279 297C275.106 299.596 271.842 299.285 267.325 299.271C266.439 299.276 265.552 299.281 264.639 299.287C262.712 299.297 260.786 299.303 258.859 299.305C255.807 299.308 252.755 299.325 249.703 299.345C241.026 299.401 232.348 299.432 223.67 299.456C218.363 299.472 213.056 299.502 207.748 299.541C205.728 299.552 203.707 299.558 201.687 299.559C198.855 299.559 196.024 299.577 193.193 299.599C191.947 299.592 191.947 299.592 190.676 299.585C184.825 299.658 179.848 300.548 175.258 304.5C170.188 311.214 170.752 317.042 170.688 325.187C170.644 326.998 170.644 326.998 170.6 328.845C170.548 336.06 170.995 340.923 175 347C179.658 350.784 183.428 352.121 189.327 352.131C190.185 352.135 191.042 352.139 191.926 352.143C192.86 352.143 193.793 352.142 194.754 352.142C195.743 352.145 196.732 352.149 197.751 352.152C199.898 352.159 202.044 352.165 204.191 352.168C207.586 352.176 210.982 352.191 214.377 352.21C224.031 352.262 233.685 352.31 243.339 352.326C249.244 352.336 255.149 352.365 261.054 352.407C263.306 352.419 265.558 352.424 267.81 352.422C270.955 352.42 274.1 352.442 277.246 352.47C278.179 352.463 279.112 352.457 280.074 352.45C286.357 352.541 286.357 352.541 289.551 354.818C291.613 357.922 291.935 360.293 292 364C290.78 367.05 289.871 368.512 286.997 370.121C282.708 371.379 278.627 371.275 274.18 371.255C272.704 371.261 272.704 371.261 271.197 371.266C269.063 371.273 266.929 371.276 264.795 371.274C261.416 371.273 258.036 371.286 254.657 371.303C245.049 371.349 235.441 371.374 225.833 371.381C219.952 371.386 214.072 371.41 208.192 371.446C205.954 371.456 203.716 371.458 201.477 371.453C198.344 371.446 195.212 371.463 192.079 371.486C191.158 371.477 190.237 371.469 189.289 371.461C183.353 371.537 179.888 372.586 175 376C169.603 381.811 170.439 390.237 170.563 397.625C170.556 398.826 170.548 400.028 170.541 401.265C170.59 408.088 170.699 413.38 175.5 418.644C180.501 422.538 183.619 423.124 189.871 423.142C190.565 423.145 191.26 423.149 191.976 423.152C193.483 423.159 194.991 423.165 196.499 423.168C198.886 423.176 201.274 423.191 203.661 423.21C210.45 423.262 217.238 423.31 224.026 423.326C228.179 423.336 232.332 423.365 236.485 423.407C238.067 423.419 239.648 423.424 241.229 423.422C243.444 423.42 245.657 423.442 247.871 423.47C249.13 423.476 250.389 423.481 251.686 423.488C255.603 424.093 257.26 425.175 260 428C261.149 431.949 261.431 434.029 259.75 437.812C258 440 258 440 255 442C251.946 442.258 251.946 442.258 248.145 442.271C247.106 442.279 247.106 442.279 246.045 442.287C244.541 442.297 243.037 442.303 241.532 442.305C239.148 442.308 236.765 442.325 234.381 442.345C227.604 442.401 220.827 442.432 214.05 442.456C209.903 442.472 205.756 442.502 201.61 442.541C200.032 442.552 198.455 442.558 196.877 442.559C194.665 442.559 192.455 442.577 190.243 442.599C188.986 442.604 187.73 442.609 186.435 442.615C182.028 443.109 178.648 444.497 175.356 447.5C171.42 452.555 170.842 456.142 170.832 462.371C170.829 463.09 170.826 463.808 170.822 464.549C170.817 466.068 170.815 467.587 170.815 469.105C170.813 471.425 170.795 473.745 170.776 476.064C170.773 477.541 170.771 479.019 170.77 480.496C170.763 481.188 170.755 481.879 170.748 482.592C170.765 486.208 170.898 488.984 173 492C175.831 493.415 178.203 493.129 181.371 493.133C182.032 493.136 182.693 493.138 183.374 493.14C185.6 493.147 187.825 493.146 190.051 493.145C191.642 493.148 193.234 493.151 194.825 493.155C199.156 493.164 203.486 493.166 207.817 493.167C211.428 493.168 215.039 493.172 218.65 493.175C227.166 493.183 235.683 493.186 244.2 493.185C252.996 493.184 261.791 493.195 270.587 493.211C278.13 493.224 285.673 493.229 293.216 493.229C297.725 493.228 302.234 493.231 306.742 493.242C310.982 493.251 315.221 493.252 319.46 493.244C321.018 493.243 322.577 493.246 324.135 493.252C326.257 493.259 328.38 493.255 330.503 493.247C331.692 493.248 332.881 493.248 334.107 493.249C337.196 493.217 337.196 493.217 340 491C341.165 487.506 341.181 484.336 341.203 480.699C341.209 479.985 341.215 479.271 341.221 478.535C341.23 477.025 341.237 475.514 341.24 474.004C341.25 471.706 341.281 469.409 341.313 467.111C341.319 465.64 341.324 464.17 341.328 462.699C341.347 461.677 341.347 461.677 341.366 460.634C341.338 454.594 339.581 450.743 335.563 446.312C331.788 443.329 327.341 442.671 322.707 441.773C319.85 440.957 318.738 440.37 317 438C315.989 434.098 315.596 431.909 317.25 428.187C320.081 424.648 322.431 423.813 326.75 423.25C332.043 422.267 335.633 420.237 339 416C341.836 410.071 341.368 404.136 341.375 397.687C341.4 396.489 341.424 395.291 341.449 394.056C341.473 386.894 340.983 382.028 337 376C333.094 373.089 330.051 371.919 325.313 371C322.417 370.423 320.999 369.999 318.5 368.312C316.466 365.176 316.133 362.715 316 359C317.102 355.602 317.921 355.052 321 353C322.947 352.495 324.908 352.042 326.875 351.625C333.145 350.1 333.145 350.1 338 346C341.783 339.387 341.447 332.912 341.375 325.437C341.393 323.628 341.393 323.628 341.41 321.783C341.406 320.616 341.403 319.448 341.399 318.246C341.394 316.663 341.394 316.663 341.388 315.048C340.702 309.655 338.299 305.475 334.016 302.09C330.482 300.179 326.624 299.532 322.707 298.773C319.85 297.957 318.738 297.37 317 295C315.997 291.131 315.618 288.904 317.188 285.187C320.034 281.752 323.149 280.832 327.438 280C333.631 278.997 333.631 278.997 338.188 275.187C338.456 274.465 338.724 273.744 339 273C339.341 272.237 339.682 271.474 340.034 270.688C341.048 267.868 341.26 265.789 341.279 262.805C341.29 261.78 341.301 260.755 341.312 259.699C341.316 258.029 341.316 258.029 341.319 256.325C341.329 255.144 341.339 253.963 341.349 252.746C341.375 249.517 341.392 246.288 341.405 243.059C341.421 239.681 341.447 236.304 341.473 232.926C341.52 226.533 341.556 220.141 341.59 213.748C341.628 206.469 341.677 199.19 341.728 191.91C341.831 176.94 341.92 161.97 342 147C341.309 147.003 340.618 147.005 339.906 147.008C323.088 147.074 306.271 147.124 289.454 147.155C281.321 147.171 273.188 147.192 265.056 147.226C257.967 147.256 250.879 147.275 243.79 147.282C240.037 147.286 236.284 147.295 232.53 147.317C228.34 147.341 224.15 147.342 219.96 147.34C218.716 147.351 217.472 147.362 216.19 147.373C215.047 147.369 213.904 147.365 212.727 147.361C211.24 147.365 211.24 147.365 209.724 147.369C205.555 146.804 202.932 144.932 200 142C199.664 139.976 199.664 139.976 199.625 137.625C199.597 136.854 199.568 136.083 199.539 135.289C200.711 129.472 204.869 128.5 210.187 128.499Z" fill="#632B02"/>
<path d="M227.098 -0.647052C227.793 -0.655814 228.488 -0.664575 229.204 -0.673602C231.491 -0.695529 233.776 -0.68107 236.063 -0.664142C237.658 -0.667512 239.253 -0.672366 240.848 -0.678638C244.187 -0.686 247.525 -0.675326 250.864 -0.651935C255.139 -0.623446 259.411 -0.639854 263.686 -0.669797C266.978 -0.687889 270.271 -0.682104 273.563 -0.669158C275.139 -0.665829 276.715 -0.669893 278.29 -0.681556C280.495 -0.694297 282.698 -0.674849 284.903 -0.647052C286.782 -0.641085 286.782 -0.641085 288.699 -0.634997C292.941 0.180826 294.424 1.58042 297 4.99992C297.601 7.46142 297.601 7.46142 297.568 10.0656C297.567 11.0462 297.567 12.0269 297.567 13.0372C297.541 14.0832 297.515 15.1292 297.488 16.207C297.478 17.8277 297.478 17.8277 297.467 19.4813C297.439 22.9257 297.376 26.3685 297.313 29.8124C297.288 32.1503 297.265 34.4882 297.244 36.8261C297.189 42.5513 297.106 48.2755 297 53.9999C298.37 54.1979 298.37 54.1979 299.767 54.3998C302.441 54.8961 304.338 55.4124 306.735 56.6015C307.386 56.9231 308.038 57.2447 308.709 57.5761C309.383 57.9222 310.056 58.2683 310.75 58.6249C311.455 58.9839 312.161 59.3429 312.887 59.7128C323.524 65.2363 336.467 72.9339 342 83.9999C342.471 87.9269 342.241 90.6983 340 93.9999C336.315 96.4567 333.28 96.8051 329 95.9999C326.563 93.9999 326.563 93.9999 324 90.9999C312.16 79.0326 295.658 70.0026 278.53 69.8229C277.458 69.8101 276.385 69.7973 275.28 69.784C274.128 69.7766 272.976 69.7693 271.789 69.7616C270.589 69.7536 269.389 69.7455 268.152 69.7372C265.608 69.7234 263.065 69.7126 260.521 69.7048C257.942 69.6933 255.362 69.6729 252.783 69.6432C227.924 69.3575 207.704 71.7222 189 89.9999C175.717 105.124 170.327 122.871 170.545 142.762C170.567 144.895 170.563 147.026 170.552 149.159C170.531 154.437 170.548 159.716 170.574 164.994C170.595 169.498 170.597 174.001 170.571 178.505C170.567 180.597 170.591 182.688 170.617 184.781C170.61 186.05 170.603 187.32 170.596 188.628C170.602 189.741 170.607 190.854 170.612 192.001C169.804 195.961 168.071 197.465 165 200C161.974 200.907 160.25 200.464 157 200C154.569 198.13 153.359 196.719 152 194C151.888 191.972 151.841 189.94 151.823 187.908C151.81 186.625 151.797 185.342 151.784 184.02C151.776 182.607 151.769 181.194 151.762 179.781C151.758 179.066 151.754 178.351 151.75 177.615C151.729 173.814 151.714 170.013 151.705 166.212C151.696 163.099 151.676 159.986 151.643 156.873C151.331 125.899 154.192 99.1693 176.543 75.371C183.379 68.7747 190.827 63.8384 199.25 59.5624C200.224 59.0672 200.224 59.0672 201.217 58.5619C205.733 56.3713 210.117 55.1667 215 53.9999C214.984 53.0958 214.984 53.0958 214.967 52.1733C214.856 45.8955 214.78 39.618 214.726 33.3395C214.7 30.997 214.666 28.6545 214.623 26.3122C214.562 22.9436 214.534 19.576 214.512 16.207C214.486 15.1609 214.46 14.1149 214.434 13.0372C214.433 12.0566 214.433 11.076 214.433 10.0656C214.416 8.77653 214.416 8.77653 214.399 7.46142C216.04 0.743183 220.834 -0.627164 227.098 -0.647052ZM233 17.9999C233 28.8899 233 39.7799 233 50.9999C248.18 50.9999 263.36 50.9999 279 50.9999C279 40.1099 279 29.2199 279 17.9999C263.82 17.9999 248.64 17.9999 233 17.9999Z" fill="#632B02"/>
<path d="M291 424C293.87 425.794 295.491 426.983 297 430C297.253 433.88 297.305 436.774 295 440C290.556 442.717 286.06 442.776 281 442C277.872 439.998 276.377 438.714 275.566 435.027C275.346 431.459 275.691 429.402 277.875 426.562C282.084 423.467 285.886 423.337 291 424Z" fill="#632B02"/>
</g>
<defs>
<clipPath id="clip0_68_720">
<rect width="512" height="512" fill="white"/>
</clipPath>
</defs>
</svg>
