<svg width="512" height="363" viewBox="0 0 512 363" fill="none" xmlns="http://www.w3.org/2000/svg">
<g clip-path="url(#clip0_68_710)">
<path d="M386.004 43.2228C399.24 55.3087 413.193 72.4728 417.352 90.4103C419.221 100.022 419.221 100.022 425.001 107.389C429.95 109.523 435.169 110.407 440.44 111.401C444.446 112.338 447.937 114.029 451.562 115.938C452.543 116.453 452.543 116.453 453.544 116.979C455.376 117.964 457.19 118.975 459 120C459.994 120.554 460.988 121.109 462.012 121.68C485.549 135.715 502.395 159.869 509.375 186.125C514.191 205.265 514.349 228.163 508 247C507.764 247.703 507.528 248.407 507.285 249.131C501.321 266.216 491.809 280.333 479 293C477.946 294.087 477.946 294.087 476.871 295.195C458.314 313.135 430.754 322.939 405.162 323.044C388.273 322.704 372.463 319.677 357.276 312.111C353.701 310.331 353.701 310.331 349.836 310.5C347.444 312.454 345.409 314.605 343.312 316.875C319.954 341.041 285.298 353.393 252.18 354.286C218.098 354.676 185.823 343.302 160 321C158.832 320.014 158.832 320.014 157.641 319.008C153.166 315.149 149.179 311.12 145.41 306.567C144.065 304.88 144.065 304.88 142 304C139.584 304.856 137.242 305.774 134.875 306.75C109.897 316.443 82.6127 315.448 58 305C48.2899 300.567 39.9053 295.24 32 288C31.1479 287.229 30.2958 286.458 29.4179 285.664C13.1743 270.244 1.16723 247.663 -0.177047 225.018C-0.461198 210.497 -0.645473 196.864 3.99996 183C4.20894 182.364 4.41793 181.727 4.63326 181.071C9.47215 166.682 17.4454 154.869 28 144C28.8237 143.084 28.8237 143.084 29.664 142.149C35.1285 136.253 42.6617 130.172 50.1347 127.131C52.3091 126.246 54.1248 125.417 56 124C56.9967 120.94 57.4077 118.871 57.625 115.75C60.5879 90.6378 75.1684 68.8661 94.4609 52.9728C116.433 36.8769 143.601 29.7122 170.638 33.8734C182.709 35.9649 193.244 39.8497 203.969 45.7071C207.235 47.1006 207.824 47.1661 211 46.0001C213.218 44.1929 215.327 42.3622 217.437 40.4376C235.744 24.2874 258.067 15.003 282 11.0001C282.762 10.8673 283.524 10.7346 284.309 10.5978C321.444 5.31336 358.389 18.7519 386.004 43.2228ZM218.414 69.6525C215.611 72.3244 212.617 72.6339 208.809 72.6095C205.115 71.808 202.384 69.9777 199.312 67.8751C181.555 55.7268 161.703 51.3746 140.437 55.1876C118.017 60.1829 100.458 72.8055 88 92.0001C81.1077 103.58 77.7333 115.852 76.8584 129.227C76.4578 134.051 75.5607 136.693 72 140C69.5454 141.478 66.9882 142.644 64.375 143.813C57.4523 147.096 51.6819 150.801 46 156C44.9771 156.886 44.9771 156.886 43.9335 157.789C34.573 166.399 28.1186 178.08 24 190C23.5224 191.272 23.5224 191.272 23.0351 192.57C16.8799 212.029 20.7288 233.614 29.7927 251.353C32.8968 257.122 36.5701 262.166 41 267C41.5633 267.632 42.1266 268.263 42.707 268.914C56.6736 283.764 76.3708 291.742 96.5063 292.471C111.093 292.637 122.669 289.463 135.471 282.671C140.799 279.915 144.108 278.765 150 280C153.979 282.467 156.27 285.293 159.062 289C177.205 312.924 204.434 327.906 233.964 332.226C264.051 336.075 294.247 328.468 318.457 310.051C325.664 304.239 332.153 298.023 338.158 290.985C340.855 287.91 342.974 285.931 347 285C352.76 285.156 357.168 288.064 362.062 290.813C383.517 302.371 406.587 304.83 430.062 297.875C451.74 290.89 470.118 276.151 481 256C491.952 234.321 495.295 209.92 487.676 186.402C483.247 174.198 476.789 163.541 468 154C467.451 153.371 466.902 152.742 466.336 152.094C454.229 138.973 436.284 130.392 418.949 127.231C418.271 127.106 417.593 126.982 416.894 126.854C414.972 126.517 413.045 126.211 411.117 125.906C407.494 124.853 406.948 124.113 405 121C404.204 118.84 404.204 118.84 403.605 116.508C403.376 115.645 403.146 114.782 402.909 113.893C402.552 112.523 402.552 112.523 402.187 111.125C394.501 83.2503 378.776 60.1353 353.551 45.3361C305.855 18.4915 254.927 31.4988 218.414 69.6525Z" fill="#632B02"/>
<path d="M294 114C295.28 114.491 295.28 114.491 296.586 114.992C310.849 121.157 320.247 133.768 325.875 147.813C331.217 162.051 330.206 177.48 324.629 191.43C317.751 206.505 306.798 217.451 291.125 223.375C275.774 228.645 258.771 227.255 244.121 220.715C229.823 213.576 219.69 201.529 214.5 186.5C209.965 171.553 211.08 155.859 217.508 141.672C226.081 126.121 238.345 116.775 255 111C267.271 107.62 282.475 109.098 294 114ZM243.594 141.215C236.348 149.33 232.311 159.618 232.719 170.5C233.912 181.107 238.594 190.461 246.75 197.375C255.787 204.081 265.272 207.006 276.437 205.375C287.188 203.108 296.603 197.354 302.812 188.188C308.022 179.018 309.522 169.22 307.344 158.887C304.285 148.512 298.343 140.532 289 135C273.532 127.191 256.528 129.288 243.594 141.215Z" fill="#632B02"/>
<path d="M203.074 118.535C205.493 120.375 206.832 122.053 207.371 125.086C207.5 129.543 207.491 131.379 204.625 135C201.328 137.512 199.324 138.39 195.137 138.363C191.519 137.748 188.517 135.952 185.332 134.191C178.112 130.503 167.716 130.839 159.938 132.754C157.514 133.696 155.275 134.743 153 136C151.948 136.577 150.896 137.155 149.812 137.75C140.353 145.318 135.724 153.742 134.191 165.695C133.622 175.519 136.677 184.512 142.754 192.227C149.15 199.127 157.121 203.546 166.539 204.273C175.216 204.573 181.572 203.992 189 199C193.242 196.172 197.023 196.112 202 197C204.837 198.707 205.347 199.915 207 203C207.701 207.013 207.883 209.244 206.066 212.855C200.565 220.25 190.724 224.028 182 226C163.268 227.704 146.906 224.831 132.086 212.594C119.5 200.805 112.982 186.587 112 169.328C112 152.55 118.241 137.895 129.688 125.75C149.728 106.678 179.76 104.15 203.074 118.535Z" fill="#632B02"/>
<path d="M384 166C391.043 170.876 394.755 176.527 396.437 184.875C398.813 203.257 385.231 218.069 375 232C374.67 232.33 374.34 232.66 374 233C374.869 233.006 374.869 233.006 375.756 233.013C378.401 233.046 381.043 233.116 383.687 233.188C385.055 233.196 385.055 233.196 386.451 233.205C391.07 233.356 393.328 233.483 397.082 236.371C399.353 239.484 400 241.145 400 245C398.55 249.35 397.851 251.433 394 254C391.926 254.274 391.926 254.274 389.516 254.307C388.159 254.331 388.159 254.331 386.775 254.355C385.8 254.36 384.825 254.366 383.82 254.371C382.815 254.38 381.81 254.389 380.775 254.399C378.648 254.413 376.522 254.422 374.395 254.426C371.144 254.438 367.895 254.487 364.644 254.537C362.578 254.547 360.512 254.554 358.445 254.559C357.474 254.578 356.503 254.598 355.503 254.618C350.85 254.587 348.705 254.538 344.91 251.645C342.655 248.522 342 246.854 342 243C344.031 237.393 346.938 232.923 350.437 228.125C351.51 226.629 352.583 225.133 353.656 223.637C354.207 222.874 354.757 222.112 355.324 221.326C358.049 217.544 360.744 213.742 363.437 209.938C363.921 209.26 364.404 208.583 364.902 207.885C367.271 204.546 369.586 201.176 371.816 197.742C372.224 197.116 372.632 196.489 373.053 195.843C374.618 192.798 374.52 190.317 374 187C373.083 184.917 373.083 184.917 371 184C367.5 183.334 367.5 183.334 364 184C362.173 186.126 362.173 186.126 361 189C357.404 194.731 357.404 194.731 354 197C347.053 197.672 347.053 197.672 343.062 195.125C339.549 191.506 339.594 188.612 339.664 183.727C340.579 176.301 345.309 170.966 350.988 166.442C360.539 159.598 374.093 159.639 384 166Z" fill="#632B02"/>
</g>
<defs>
<clipPath id="clip0_68_710">
<rect width="512" height="363" fill="white"/>
</clipPath>
</defs>
</svg>
