<svg width="677" height="678" viewBox="0 0 677 678" fill="none" xmlns="http://www.w3.org/2000/svg">
<path d="M150.875 3.75C163.649 17.2757 156 40.2076 156 56C240.81 56 325.62 56 413 56C413.33 55.34 413.66 54.68 414 54C414 54.66 414 55.32 414 56C449.97 56 485.94 56 523 56C523 42.47 523 28.94 523 15C525.743 5.40051 525.743 5.40051 531 2C536.944 -0.223093 542.101 -0.609069 548 2C551.641 4.39682 554.367 6.89986 556 11C556.251 13.2189 556.251 13.2189 556.253 15.6898C556.258 16.6361 556.264 17.5825 556.27 18.5575C556.263 20.1154 556.263 20.1154 556.257 21.7048C556.261 22.8135 556.264 23.9222 556.268 25.0645C556.277 28.8121 556.272 32.5594 556.267 36.307C556.271 39.0079 556.276 41.7088 556.281 44.4097C556.291 50.2988 556.294 56.1879 556.292 62.077C556.289 70.8342 556.297 79.5914 556.308 88.3486C556.327 104.897 556.333 121.446 556.334 137.995C556.335 150.771 556.339 163.548 556.345 176.325C556.347 180 556.349 183.674 556.351 187.349C556.351 188.719 556.351 188.719 556.352 190.117C556.364 215.819 556.372 241.52 556.371 267.222C556.371 268.676 556.371 268.676 556.371 270.16C556.371 275.073 556.371 279.987 556.371 284.901C556.371 285.877 556.371 286.853 556.371 287.859C556.371 289.832 556.37 291.806 556.37 293.78C556.369 324.493 556.384 355.207 556.412 385.921C556.442 420.408 556.459 454.895 556.458 489.382C556.457 493.057 556.457 496.732 556.457 500.407C556.457 501.312 556.457 502.217 556.457 503.15C556.457 517.732 556.47 532.314 556.487 546.896C556.504 561.543 556.506 576.191 556.493 590.838C556.486 599.546 556.489 608.255 556.509 616.963C556.521 622.775 556.518 628.587 556.504 634.399C556.496 637.714 556.497 641.028 556.511 644.343C556.525 647.91 556.514 651.476 556.498 655.044C556.513 656.594 556.513 656.594 556.528 658.177C556.468 664.114 555.936 667.469 552 672C547.366 675.987 543.013 677.242 537 677C531.706 675.564 528.713 673.095 525.164 669.109C517.247 654.763 523 636.386 523 620C401.89 620 280.78 620 156 620C156 635.18 156 650.36 156 666C150.053 674.92 150.053 674.92 143.859 676.57C138.453 677.435 134.839 676.792 130 674C126.271 670.769 123.32 667.826 122.749 662.789C122.749 661.977 122.748 661.166 122.748 660.329C122.743 659.387 122.738 658.445 122.732 657.475C122.737 656.441 122.741 655.407 122.745 654.342C122.742 653.238 122.739 652.135 122.736 650.998C122.727 647.267 122.733 643.537 122.739 639.807C122.736 637.118 122.732 634.43 122.728 631.741C122.719 625.879 122.718 620.017 122.721 614.155C122.726 605.438 122.72 596.721 122.712 588.004C122.697 571.531 122.695 555.059 122.698 538.586C122.699 525.868 122.698 513.15 122.693 500.431C122.693 498.606 122.692 496.78 122.692 494.955C122.691 492.204 122.69 489.454 122.689 486.703C122.68 461.119 122.676 435.535 122.68 409.952C122.68 408.987 122.681 408.022 122.681 407.027C122.681 402.136 122.682 397.245 122.683 392.353C122.683 391.382 122.684 390.41 122.684 389.409C122.684 387.445 122.684 385.48 122.685 383.516C122.69 352.943 122.682 322.37 122.664 291.797C122.643 257.469 122.632 223.14 122.636 188.811C122.637 185.153 122.637 181.495 122.637 177.836C122.637 176.935 122.638 176.035 122.638 175.106C122.639 161.491 122.632 147.875 122.622 134.26C122.61 118.78 122.608 103.3 122.62 87.8203C122.627 79.1521 122.625 70.484 122.612 61.8158C122.604 56.0303 122.606 50.2448 122.618 44.4594C122.624 41.1599 122.624 37.8606 122.614 34.5611C122.604 31.0105 122.612 27.4603 122.625 23.9096C122.618 22.8805 122.611 21.8514 122.603 20.7911C122.651 14.5163 123.36 10.0485 127.613 5.13672C134.914 -1.09022 142.643 -1.26071 150.875 3.75ZM156 88C156 98.89 156 109.78 156 121C277.11 121 398.22 121 523 121C523 110.11 523 99.22 523 88C401.89 88 280.78 88 156 88ZM156 152C156 274.43 156 396.86 156 523C277.11 523 398.22 523 523 523C523 400.57 523 278.14 523 152C401.89 152 280.78 152 156 152ZM156 554C156 565.22 156 576.44 156 588C159.76 589.363 159.76 589.363 162.25 588.062C162.827 587.712 163.405 587.361 164 587C164 587.66 164 588.32 164 589C166.31 588.34 168.62 587.68 171 587C171 587.66 171 588.32 171 589C172.104 588.892 172.104 588.892 173.23 588.781C174.206 588.688 175.182 588.596 176.187 588.5C177.15 588.407 178.113 588.314 179.105 588.219C186.343 587.672 186.343 587.672 189 589C191.019 588.394 193.022 587.731 195 587C195 587.66 195 588.32 195 589C196.237 588.814 197.475 588.629 198.75 588.438C201.807 588.049 204.044 588.015 207 589C210.348 589 213.531 588.568 216.844 588.121C219 588 219 588 222 589C226.953 589.24 230.481 589.259 235 587C235 587.66 235 588.32 235 589C236.134 589 237.269 589 238.437 589C239.958 589 241.479 589 243 589C245.714 588.745 248.427 588.483 251.141 588.219C253.778 588.017 256.357 587.965 259 588C259.99 588 260.98 588 262 588C264.253 588.232 266.498 588.507 268.746 588.781C271.286 589.064 271.286 589.064 275 589C277.667 589 280.333 589 283 589C284.356 588.825 285.71 588.637 287.062 588.438C291 588 291 588 293 589C295.008 588.719 297.01 588.389 299 588C299 588.33 299 588.66 299 589C300.134 589 301.269 589 302.437 589C306.625 589 310.812 589 315 589C315 588.34 315 587.68 315 587C316.011 587.351 317.021 587.701 318.062 588.062C322.98 589.479 327.203 588.599 332 587C332 587.66 332 588.32 332 589C333.093 588.814 334.186 588.629 335.312 588.438C339 588 339 588 342 589C342.804 588.835 343.609 588.67 344.437 588.5C347.12 587.977 348.421 588.312 351 589C351.99 588.67 352.98 588.34 354 588C355.338 588.315 356.672 588.646 358 589C358.33 588.67 358.66 588.34 359 588C361.556 587.928 364.097 588.004 366.652 588.062C369.022 588.165 369.022 588.165 371 587C371 587.66 371 588.32 371 589C374.877 589.075 378.259 589.007 382 588C382.33 588.33 382.66 588.66 383 589C385.553 589.101 388.072 589.139 390.625 589.125C391.325 589.129 392.025 589.133 392.746 589.137C396.151 589.13 399.313 588.954 402.695 588.461C405.778 588.031 408.188 588.076 411.25 588.5C414.467 588.94 415.849 589.05 419 588C419.619 588.186 420.237 588.371 420.875 588.562C423.752 589.155 425.397 588.229 428 587C428.33 587.66 428.66 588.32 429 589C429.856 588.756 429.856 588.756 430.73 588.508C435.479 587.445 440.409 587.75 445.187 588.5C451.837 589.372 459.577 590.141 466 588C466.33 588.33 466.66 588.66 467 589C470.233 589.124 473.212 589.177 476.379 588.465C479.309 587.945 481.735 588.111 484.687 588.438C489.512 588.953 493.322 588.817 498.125 588C499.221 587.814 500.316 587.629 501.445 587.438C502.288 587.293 503.131 587.149 504 587C504 587.66 504 588.32 504 589C504.66 588.67 505.32 588.34 506 588C506.33 588.33 506.66 588.66 507 589C509.511 589.1 511.989 589.139 514.5 589.125C515.202 589.129 515.905 589.133 516.629 589.137C520.104 589.444 520.104 589.444 523 588C523 576.78 523 565.56 523 554C401.89 554 280.78 554 156 554ZM499 588C503 589 503 589 503 589L499 588Z" fill="#632B02"/>
<path d="M670.938 3.75018C676.372 9.67827 676.43 15.2704 676.38 22.9171C676.385 24.0244 676.39 25.1317 676.394 26.2726C676.406 30.0035 676.397 33.7341 676.388 37.465C676.392 40.1587 676.397 42.8524 676.404 45.5461C676.416 51.4132 676.418 57.2802 676.411 63.1474C676.402 71.8719 676.41 80.5964 676.422 89.321C676.441 104.902 676.444 120.483 676.439 136.064C676.434 149.7 676.435 163.336 676.44 176.972C676.441 178.799 676.442 180.627 676.443 182.455C676.444 185.209 676.445 187.963 676.446 190.717C676.457 216.329 676.462 241.941 676.454 267.552C676.453 268.518 676.453 269.484 676.453 270.479C676.45 278.323 676.448 286.166 676.445 294.01C676.435 324.61 676.443 355.21 676.467 385.81C676.493 420.176 676.506 454.541 676.498 488.907C676.498 492.57 676.497 496.232 676.496 499.895C676.496 500.797 676.496 501.699 676.496 502.628C676.494 516.255 676.502 529.883 676.515 543.51C676.53 559.004 676.53 574.498 676.513 589.992C676.503 598.666 676.504 607.341 676.522 616.016C676.532 621.807 676.528 627.597 676.512 633.388C676.504 636.69 676.504 639.992 676.517 643.294C676.53 646.849 676.518 650.403 676.501 653.957C676.51 654.985 676.52 656.013 676.53 657.071C676.466 663.261 675.649 666.948 672 672C667.422 676.046 662.994 677.234 657 677C651.445 676.039 647.786 673.482 644.252 669.169C641.842 664.994 642.181 660.604 642.245 655.898C642.236 654.783 642.228 653.667 642.219 652.518C642.197 648.766 642.218 645.015 642.238 641.263C642.235 638.552 642.222 635.841 642.21 633.13C642.188 627.228 642.189 621.326 642.204 615.424C642.227 606.648 642.215 597.872 642.197 589.095C642.165 573.421 642.168 557.748 642.185 542.074C642.2 528.358 642.204 514.641 642.197 500.925C642.197 500.016 642.196 499.106 642.196 498.169C642.194 494.478 642.192 490.787 642.19 487.096C642.172 452.46 642.188 417.824 642.221 383.189C642.249 352.407 642.246 321.626 642.218 290.844C642.186 256.273 642.173 221.701 642.191 187.129C642.193 183.444 642.195 179.76 642.197 176.075C642.198 175.168 642.198 174.261 642.199 173.326C642.205 159.617 642.197 145.909 642.182 132.2C642.165 116.615 642.169 101.03 642.202 85.4445C642.22 76.7187 642.221 67.9932 642.198 59.2673C642.185 53.4422 642.193 47.6174 642.219 41.7923C642.233 38.4708 642.235 35.1505 642.217 31.8289C642.199 28.2528 642.217 24.6786 642.245 21.1026C642.231 20.0689 642.217 19.0352 642.202 17.9703C642.297 11.9352 643.22 8.62855 647.499 4.27883C654.435 -1.62923 663.471 -0.69815 670.938 3.75018Z" fill="#632B02"/>
<path d="M29.8751 5.62499C32.4838 9.76833 33.3401 13.1984 34.0001 18C34.1837 19.2704 34.1837 19.2704 34.3711 20.5664C34.9404 25.3945 34.9924 29.9302 34.5123 34.7674C33.9011 42.1997 33.9507 49.5745 34.0757 57.021C34.1184 59.5681 34.1537 62.1152 34.1874 64.6624C34.2374 68.388 34.2901 72.1134 34.345 75.8389C34.4945 86.0828 34.6158 96.327 34.7335 106.571C34.7458 107.645 34.7582 108.718 34.771 109.824C35.2191 149.328 35.1501 188.835 35.1286 228.341C35.1242 237.424 35.1274 246.506 35.1323 255.589C35.1368 264.527 35.1374 273.464 35.1348 282.402C35.1333 287.662 35.133 292.922 35.1364 298.183C35.1392 303.058 35.1372 307.933 35.1315 312.808C35.1301 314.579 35.1305 316.351 35.1327 318.123C35.1426 326.801 34.9871 335.361 34.2267 344.013C33.8468 349.019 33.8608 354.017 33.8707 359.036C33.8689 360.167 33.8672 361.299 33.8654 362.465C33.8611 366.187 33.864 369.91 33.8672 373.633C33.8665 375.605 33.8658 377.578 33.8646 379.551C33.8604 386.553 33.8634 393.556 33.8697 400.559C33.8743 405.691 33.8762 410.823 33.8767 415.956C33.8813 447.804 33.9491 479.646 34.5252 511.491C35.0917 542.931 35.0051 574.361 34.776 605.805C34.7502 609.599 34.7299 613.392 34.711 617.186C34.6804 623.162 34.6344 629.137 34.5764 635.113C34.5569 637.333 34.5423 639.553 34.5329 641.773C34.5185 644.842 34.4857 647.91 34.4483 650.979C34.4482 651.867 34.448 652.755 34.4479 653.67C34.3288 660.803 33.1554 667.186 28.7501 672.938C24.3141 676.264 20.2742 677.307 14.8126 676.688C13.5544 676.461 12.2963 676.234 11.0001 676C10.2576 675.897 9.51506 675.794 8.75006 675.688C5.22326 674.302 3.41649 671.931 1.89895 668.539C0.663985 663.677 0.722875 659.062 0.742786 654.065C0.73928 652.955 0.735775 651.846 0.732162 650.703C0.722818 646.966 0.727779 643.228 0.73263 639.49C0.728895 636.792 0.724374 634.093 0.718899 631.395C0.708589 625.517 0.705757 619.64 0.707811 613.762C0.710859 605.022 0.702544 596.282 0.692062 587.542C0.672709 571.025 0.667094 554.508 0.665949 537.992C0.66503 525.24 0.660916 512.489 0.654547 499.737C0.652752 496.069 0.650972 492.4 0.649197 488.732C0.648755 487.82 0.648313 486.908 0.647858 485.968C0.635548 460.314 0.627656 434.66 0.628544 409.005C0.628575 408.038 0.628607 407.07 0.628639 406.073C0.628805 401.17 0.629003 396.266 0.629208 391.363C0.629248 390.389 0.629287 389.415 0.629328 388.411C0.629409 386.442 0.629493 384.472 0.62958 382.503C0.630806 351.849 0.615784 321.196 0.588434 290.542C0.557733 256.117 0.5405 221.693 0.54236 187.268C0.54251 183.6 0.542607 179.931 0.542669 176.263C0.542693 175.359 0.542716 174.456 0.54274 173.525C0.542801 158.971 0.530014 144.417 0.512804 129.863C0.495875 115.245 0.493852 100.627 0.507023 86.0089C0.51443 77.3184 0.510701 68.6281 0.491138 59.9377C0.479182 54.1374 0.481682 48.3373 0.49608 42.537C0.50388 39.2291 0.503101 35.9216 0.489164 32.6137C0.475154 29.0539 0.485544 25.495 0.502277 21.9353C0.487373 20.3876 0.487374 20.3876 0.472168 18.8087C0.530052 13.0249 1.04821 9.54313 5.00006 4.99999C13.1595 -1.86138 22.2108 -1.37278 29.8751 5.62499Z" fill="#632B02"/>
<path d="M77.6876 529.563C79.4462 529.494 79.4462 529.494 81.2403 529.424C90.9801 529.297 90.9801 529.297 95.2071 532.777C99.9501 537.522 100.318 541.962 100.336 548.492C100.343 549.316 100.349 550.139 100.356 550.988C100.366 552.728 100.371 554.468 100.371 556.208C100.375 558.859 100.411 561.509 100.449 564.16C100.455 565.854 100.459 567.548 100.461 569.242C100.475 570.03 100.49 570.818 100.505 571.629C100.451 578.079 98.2509 581.596 93.8282 586.32C89.8356 588.692 86.3222 588.746 81.7501 588.875C80.9418 588.922 80.1336 588.968 79.3009 589.016C72.4407 589.301 65.1841 589.027 59.5626 584.688C54.9557 579.856 54.6914 575.311 54.6993 568.848C54.695 568.07 54.6907 567.292 54.6863 566.491C54.6806 564.851 54.6801 563.211 54.6844 561.572C54.6876 559.074 54.6641 556.578 54.6387 554.08C54.6365 552.482 54.6358 550.884 54.6368 549.285C54.6276 548.545 54.6184 547.804 54.6089 547.04C54.651 542.28 55.4817 539.04 58.0001 535C64.3718 529.25 69.3692 529.693 77.6876 529.563Z" fill="#632B02"/>
<path d="M78.178 1.0938C79.2589 1.0648 80.3398 1.0358 81.4534 1.00591C87.7555 0.955621 91.5995 1.13113 96.3655 5.4063C100.483 10.0915 100.546 14.5415 100.604 20.5469C100.612 21.3473 100.62 22.1477 100.628 22.9724C100.642 24.667 100.653 26.3616 100.661 28.0562C100.672 29.7825 100.693 31.5088 100.722 33.2349C100.765 35.735 100.781 38.234 100.791 40.7344C100.809 41.4982 100.826 42.262 100.844 43.0489C100.822 48.6113 99.5238 51.8121 96.3655 56.4063C90.3512 61.4182 81.6579 60.5878 74.2405 60.2188C73.4684 60.2001 72.6962 60.1814 71.9007 60.1622C66.6511 59.9073 63.5618 58.8145 59.3655 55.4063C55.2847 50.7626 55.196 46.4029 55.1624 40.4493C55.1567 39.6687 55.151 38.8881 55.1451 38.0839C55.1357 36.4322 55.1292 34.7804 55.1253 33.1287C55.1156 30.6135 55.0846 28.0991 55.053 25.584C55.0465 23.9766 55.0413 22.3692 55.0374 20.7618C55.0251 20.0147 55.0127 19.2676 55 18.4979C55.0202 13.7099 55.8312 10.4692 58.3655 6.4063C64.5431 0.692017 70.1635 1.16473 78.178 1.0938Z" fill="#632B02"/>
<path d="M594.523 529.867C595.627 529.866 596.73 529.865 597.867 529.863C599.604 529.869 599.604 529.869 601.375 529.875C602.525 529.871 603.675 529.867 604.859 529.863C605.965 529.865 607.071 529.866 608.211 529.867C609.225 529.868 610.238 529.869 611.283 529.871C617.157 530.15 617.157 530.15 619.449 532.461C625.64 542.031 624.167 553.766 623.875 564.75C623.865 566.025 623.854 567.3 623.844 568.613C623.643 576.013 623.296 580.628 618 586C610.562 591.166 597.382 589.365 589 588C584.988 586.446 582.191 583.69 580 580C578.089 574.326 578.775 567.963 578.76 562.039C578.75 559.771 578.719 557.505 578.687 555.238C578.585 541.448 578.585 541.448 582 535C586.22 530.986 588.797 529.874 594.523 529.867Z" fill="#632B02"/>
<path d="M79.5411 120.036C80.1919 120.024 80.8427 120.012 81.5133 120C88.2369 119.981 93.3573 121.685 98.5873 125.931C99.8406 130.003 99.7281 134.238 99.7702 138.464C99.7779 139.205 99.7856 139.946 99.7936 140.71C99.8067 142.272 99.817 143.835 99.8245 145.397C99.8356 146.99 99.8551 148.582 99.8833 150.174C99.9242 152.484 99.9395 154.794 99.9493 157.105C99.966 157.811 99.9828 158.517 100 159.244C99.9758 165.05 97.888 168.088 94.3071 172.433C88.3287 177.139 77.0111 176.028 69.9284 175.481C65.2051 174.485 61.4467 172.7 58.4649 168.811C56.4293 164.779 56.2332 160.986 56.1998 156.554C56.1912 155.839 56.1826 155.123 56.1737 154.386C56.1599 152.876 56.1514 151.367 56.1478 149.857C56.1365 147.566 56.0895 145.278 56.0412 142.988C55.8995 129.77 55.8995 129.77 59.9275 124.334C65.2542 119.547 72.7743 120.042 79.5411 120.036Z" fill="#632B02"/>
<path d="M600.875 62.6875C601.856 62.6714 602.837 62.6553 603.848 62.6387C609.31 62.635 613.318 62.8635 618 66C623.66 72.272 623.318 77.1908 623.625 85.375C623.677 86.5055 623.728 87.6361 623.781 88.8008C624.632 110.647 624.632 110.647 619 118C615.046 121.595 610.544 121.498 605.426 121.789C602.992 121.851 602.992 121.851 601 123C594.294 122.488 588.14 121.613 583 117C578.117 110.265 578.814 103.361 578.815 95.3204C578.813 93.2707 578.794 91.2215 578.775 89.1719C578.751 72.7224 578.751 72.7224 583.375 67.125C589.105 62.4866 593.714 62.6642 600.875 62.6875Z" fill="#632B02"/>
<path d="M78.1064 352.092C79.4097 352.048 79.4097 352.048 80.7393 352.004C86.5157 351.947 91.8493 352.486 96.3564 356.404C99.807 361.379 100.96 365.155 100.888 371.244C100.892 371.97 100.895 372.696 100.899 373.443C100.902 374.969 100.895 376.494 100.878 378.019C100.857 380.333 100.878 382.643 100.903 384.957C100.918 392.581 100.851 398.932 96.3564 405.404C90.6827 409.914 83.9792 409.636 77.0439 409.717C76.2273 409.746 75.4107 409.775 74.5693 409.805C68.7063 409.865 64.2236 408.778 59.3564 405.404C54.1926 398.741 55.1376 390.843 55.1162 382.815C55.1065 380.609 55.0755 378.405 55.0439 376.199C55.0374 374.782 55.0322 373.364 55.0283 371.947C55.019 370.669 55.0096 369.39 55 368.073C55.4172 363.779 56.3626 361.213 58.3564 357.404C64.7271 352.253 70.2471 352.178 78.1064 352.092Z" fill="#632B02"/>
<path d="M601.375 180.812C602.105 180.8 602.834 180.788 603.586 180.775C608.904 180.761 614.463 180.906 618.742 184.437C623.444 190.923 623.338 195.481 623.613 203.419C623.686 205.465 623.777 207.509 623.869 209.554C624.495 227.008 624.495 227.008 620.125 234C615.346 238.498 610.592 238.495 604.312 238.812C603.452 238.876 602.592 238.94 601.705 239.006C595.286 239.349 588.53 238.923 583.372 234.652C577.592 228.22 578.782 219.871 578.76 211.762C578.75 209.638 578.719 207.515 578.688 205.39C578.681 204.023 578.676 202.656 578.672 201.289C578.663 200.059 578.653 198.828 578.644 197.561C579.111 192.894 580.399 188.95 583.43 185.258C589.156 180.769 594.31 180.818 601.375 180.812Z" fill="#632B02"/>
<path d="M602.563 414.812C603.822 414.798 605.081 414.784 606.379 414.77C612.441 415.155 616.581 416.826 621 421C622.648 423.774 623.278 425.96 623.449 429.168C623.494 429.971 623.538 430.774 623.583 431.601C623.618 432.455 623.652 433.308 623.688 434.188C623.725 435.069 623.763 435.951 623.802 436.86C624.01 442.705 624.056 448.53 623.813 454.375C623.795 455.057 623.777 455.739 623.759 456.442C623.424 462.18 621.214 465.929 617.063 469.812C612.474 472.454 607.288 472.183 602.125 472.188C601.102 472.206 601.102 472.206 600.059 472.225C593.935 472.242 588.887 471.246 583.688 467.812C577.699 461.546 578.628 452.82 578.63 444.667C578.625 442.571 578.589 440.477 578.551 438.381C578.488 430.932 578.763 425.29 583 419C588.446 414.437 595.759 414.847 602.563 414.812Z" fill="#632B02"/>
<path d="M77.0876 236.142C78.3154 236.126 79.5432 236.11 80.8083 236.093C81.9923 236.092 83.1763 236.092 84.3962 236.091C85.4757 236.088 86.5552 236.085 87.6674 236.082C91.202 236.523 92.8815 237.207 95.6501 239.454C99.2152 244.444 100.268 248.364 100.252 254.513C100.26 255.261 100.269 256.009 100.278 256.78C100.289 258.352 100.29 259.924 100.281 261.497C100.275 263.884 100.322 266.265 100.373 268.652C100.489 282.373 100.489 282.373 95.4289 288.127C90.0139 292.169 84.2982 291.821 77.8376 291.829C76.8779 291.854 75.9182 291.878 74.9294 291.904C68.9622 291.928 63.2953 291.563 58.6501 287.454C55.2118 282.484 54.0395 278.693 54.0837 272.615C54.0775 271.889 54.0713 271.163 54.0649 270.415C54.0578 268.89 54.0609 267.365 54.0736 265.839C54.0875 263.525 54.0534 261.215 54.0153 258.902C53.9444 245.611 53.9444 245.611 58.1855 239.8C63.4879 234.929 70.3295 236.124 77.0876 236.142Z" fill="#632B02"/>
<path d="M603.438 298.188C604.831 298.216 604.831 298.216 606.252 298.244C611.926 298.475 615.605 299.067 620 303C623.309 307.052 623.573 311.128 623.75 316.188C623.784 316.968 623.818 317.748 623.853 318.552C624.053 324.313 624 330.054 623.75 335.813C623.724 336.559 623.698 337.305 623.671 338.073C623.327 343.989 621.876 347.312 617.5 351.25C612.417 354.808 607.226 354.255 601.25 354.313C600.273 354.342 599.296 354.371 598.289 354.401C591.945 354.456 588.153 353.779 583 350C577.753 343.004 578.817 335.058 578.813 326.688C578.794 324.728 578.794 324.728 578.775 322.729C578.773 321.461 578.772 320.193 578.77 318.887C578.765 317.734 578.761 316.581 578.757 315.394C579.078 310.909 579.713 306.627 582.551 303.039C583.132 302.573 583.714 302.106 584.313 301.625C584.886 301.143 585.46 300.661 586.051 300.164C591.27 297.047 597.604 297.95 603.438 298.188Z" fill="#632B02"/>
<path d="M517 587C521 588 521 588 521 588L517 587Z" fill="#632B02"/>
<path d="M294 89C298 90 298 90 298 90L294 89Z" fill="#44A7AD"/>
<path d="M276 89C280 90 280 90 280 90L276 89Z" fill="#45AAAE"/>
<path d="M355 587C358 588 358 588 358 588L355 587Z" fill="#45A4AA"/>
<path d="M508 587C510 588 510 588 510 588L508 587Z" fill="#632B02"/>
<path d="M492 587C494 588 494 588 494 588L492 587Z" fill="#632B02"/>
<path d="M225 587C227 588 227 588 227 588L225 587Z" fill="#46A5AA"/>
<path d="M220 587C222 588 222 588 222 588L220 587Z" fill="#46A5AB"/>
<path d="M212 587C214 588 214 588 214 588L212 587Z" fill="#47A7AC"/>
<path d="M60 299C62 300 62 300 62 300L60 299Z" fill="#4DB0B4"/>
<path d="M494 153C496 154 496 154 496 154L494 153Z" fill="#632B02"/>
<path d="M462 153C464 154 464 154 464 154L462 153Z" fill="#632B02"/>
<path d="M422 153C424 154 424 154 424 154L422 153Z" fill="#632B02"/>
<path d="M390 153C392 154 392 154 392 154L390 153Z" fill="#632B02"/>
<path d="M310 153C312 154 312 154 312 154L310 153Z" fill="#632B02"/>
<path d="M262 153C264 154 264 154 264 154L262 153Z" fill="#632B02"/>
<path d="M214 153C216 154 216 154 216 154L214 153Z" fill="#632B02"/>
<path d="M206 153C208 154 208 154 208 154L206 153Z" fill="#44A3A7"/>
<path d="M198 153C200 154 200 154 200 154L198 153Z" fill="#43A2A6"/>
<path d="M228 119C230 120 230 120 230 120L228 119Z" fill="#48A8AE"/>
<path d="M486 89C488 90 488 90 488 90L486 89Z" fill="#632B02"/>
<path d="M438 89C440 90 440 90 440 90L438 89Z" fill="#632B02"/>
<path d="M430 89C432 90 432 90 432 90L430 89Z" fill="#632B02"/>
<path d="M422 89C424 90 424 90 424 90L422 89Z" fill="#632B02"/>
<path d="M414 89C416 90 416 90 416 90L414 89Z" fill="#43A3A9"/>
<path d="M406 89C408 90 408 90 408 90L406 89Z" fill="#632B02"/>
<path d="M382 89C384 90 384 90 384 90L382 89Z" fill="#44A6AB"/>
<path d="M350 89C352 90 352 90 352 90L350 89Z" fill="#632B02"/>
<path d="M326 89C328 90 328 90 328 90L326 89Z" fill="#43A5AA"/>
<path d="M318 89C320 90 320 90 320 90L318 89Z" fill="#43A7AC"/>
<path d="M254 89C256 90 256 90 256 90L254 89Z" fill="#44A9AE"/>
<path d="M246 89C248 90 248 90 248 90L246 89Z" fill="#46A9AE"/>
<path d="M230 89C232 90 232 90 232 90L230 89Z" fill="#45A9AE"/>
<path d="M222 89C224 90 224 90 224 90L222 89Z" fill="#46AAAE"/>
<path d="M214 89C216 90 216 90 216 90L214 89Z" fill="#45AAAF"/>
<path d="M198 89C200 90 200 90 200 90L198 89Z" fill="#47AAAF"/>
<path d="M190 89C192 90 192 90 192 90L190 89Z" fill="#47ABAF"/>
<path d="M182 89C184 90 184 90 184 90L182 89Z" fill="#49ACAF"/>
<path d="M175 89C177 90 177 90 177 90L175 89Z" fill="#48ACB2"/>
<path d="M166 89C168 90 168 90 168 90L166 89Z" fill="#49ADB2"/>
</svg>
