<svg width="626" height="763" viewBox="0 0 626 763" fill="none" xmlns="http://www.w3.org/2000/svg">
<path d="M385 8.99994C385.768 9.17751 386.536 9.35508 387.327 9.53803C410.333 14.9678 431.807 23.6175 453 33.9999C454.436 34.7026 454.436 34.7026 455.901 35.4194C474.64 44.6834 491.538 56.1713 508 68.9999C508.652 69.5012 509.304 70.0025 509.976 70.519C519.619 77.971 528.441 86.1541 537.062 94.7499C537.55 95.2336 538.037 95.7173 538.539 96.2157C544.832 102.484 550.593 108.956 556 116C556.871 117.099 557.743 118.197 558.617 119.293C574.013 139.03 590.532 161.936 598 186C598.66 186.33 599.32 186.66 600 187C600.989 189.242 601.86 191.448 602.687 193.75C602.946 194.46 603.206 195.17 603.473 195.902C604.326 198.264 605.164 200.631 606 203C606.286 203.801 606.571 204.602 606.866 205.428C633.345 280.169 631.462 366.257 598.123 438.73C588.834 458.06 577.892 476.487 564.995 493.625C562.499 496.939 562.499 496.939 562 501C560.348 502.024 558.679 503.021 557 504C555.093 506.056 555.093 506.056 553.375 508.437C550.227 512.514 546.938 516.354 543.437 520.125C540.284 523.522 537.156 526.931 534.125 530.437C521.611 544.747 521.611 544.747 513.375 546.586C507.501 546.819 503.657 545.539 499 542C494.956 537.424 493.778 532.991 494 527C495.783 519.993 500.834 514.897 506 510C506.713 509.656 507.426 509.312 508.16 508.957C510.565 507.706 510.843 506.418 512 504C513.475 502.414 515 500.875 516.562 499.375C519.69 496.489 519.69 496.489 522 493C522.66 493 523.32 493 524 493C524.325 492.221 524.325 492.221 524.656 491.426C526.539 488.026 529.031 485.169 531.5 482.187C570.637 433.992 590.207 373.364 590.25 311.687C590.251 310.804 590.251 309.92 590.252 309.01C590.235 294.817 589.603 280.985 587 267C586.823 266.044 586.646 265.089 586.464 264.104C576.813 213.592 554.06 165.419 518.582 127.891C517 126 517 126 517 124C516.134 123.629 516.134 123.629 515.25 123.25C512.67 121.817 510.939 120.216 509 118C509 117.34 509 116.68 509 116C508.413 115.743 507.827 115.487 507.223 115.223C504.797 113.888 503.325 112.455 501.437 110.437C496.627 105.521 491.413 101.231 486 96.9999C485.134 96.3191 485.134 96.3191 484.25 95.6245C445.872 65.6315 401.152 46.1054 352.875 39.3124C352.029 39.1929 351.183 39.0733 350.312 38.9501C336.871 37.188 323.353 36.7892 309.812 36.8124C308.738 36.8138 308.738 36.8138 307.642 36.8153C239.584 37.0068 174.542 62.5788 124 108C123.425 108.513 122.85 109.027 122.257 109.556C116.42 114.782 110.675 120.015 105.648 126.047C104.485 127.425 103.277 128.766 102.039 130.078C94.4993 138.08 88.2485 146.975 81.9999 156C81.276 157.043 81.276 157.043 80.5375 158.106C68.4418 175.701 58.8505 194.561 51.8021 214.709C51.0923 216.736 50.3579 218.751 49.6131 220.766C43.3113 238.498 39.2564 257.328 36.9999 276C36.9056 276.734 36.8113 277.467 36.7142 278.223C33.8562 304.066 34.3843 332.426 38.9999 358C39.1932 359.072 39.3866 360.144 39.5858 361.248C47.8824 405.363 66.6637 445.535 93.9999 481C94.6354 481.831 95.2709 482.663 95.9256 483.519C100.315 489.144 105.034 494.385 109.964 499.535C112.477 502.192 114.628 504.579 116 508C116.66 508 117.32 508 118 508C119.815 509.608 121.387 511.199 123 513C123.598 513.666 124.196 514.333 124.812 515.019C128.922 519.908 132.132 524.411 132 531C130.885 535.844 129.095 539.712 125.875 543.5C120.789 546.153 115.577 547.412 109.875 546.5C101.967 542.374 95.7784 536.101 89.5624 529.812C88.7198 528.963 87.8772 528.114 87.0091 527.239C81.2721 521.406 75.9472 515.521 70.9999 509C70.0144 507.753 69.0273 506.507 68.0389 505.262C13.9526 436.584 -7.41109 352.556 2.74205 266.254C8.47598 222.962 24.3565 179.193 48.9999 143C49.7325 141.918 49.7325 141.918 50.4798 140.813C59.881 126.974 69.908 114.34 81.2225 102.023C83.1475 99.9219 83.1475 99.9219 84.9999 96.9999C85.6599 96.9999 86.3199 96.9999 86.9999 96.9999C87.2654 96.4083 87.531 95.8166 87.8046 95.207C90.8877 89.5142 96.7456 85.2307 101.605 81.0585C103.413 79.5041 105.205 77.9304 106.988 76.3476C130.551 55.5615 158.151 38.458 187 25.9999C187.728 25.6832 188.457 25.3664 189.207 25.04C250.021 -1.11232 320.675 -5.98861 385 8.99994Z" fill="#632B02"/>
<path d="M289.324 395.867C290.88 395.867 292.437 395.866 293.993 395.864C297.24 395.863 300.486 395.865 303.733 395.87C307.843 395.875 311.953 395.872 316.062 395.866C319.274 395.862 322.485 395.864 325.697 395.866C327.21 395.867 328.722 395.866 330.235 395.864C359.351 395.828 359.351 395.828 371.062 398.688C371.801 398.863 372.541 399.038 373.302 399.218C396.309 404.92 416.492 416.932 431 436C431 436.66 431 437.32 431 438C431.66 438 432.32 438 433 438C434.54 440.116 435.908 442.198 437.25 444.438C437.649 445.103 438.049 445.769 438.461 446.455C442.756 453.894 445.539 461.797 448 470C448.331 471.071 448.663 472.141 449.005 473.244C453.281 489.388 452.315 506.756 452.261 523.318C452.249 526.822 452.256 530.326 452.268 533.83C452.277 537.23 452.27 540.631 452.265 544.031C452.269 545.271 452.274 546.511 452.278 547.788C452.202 561.859 450.139 574.435 440.289 585.109C431.05 592.74 420.833 595.165 409.149 595.114C408.266 595.114 407.383 595.114 406.473 595.114C403.63 595.113 400.788 595.106 397.945 595.098C396.184 595.096 394.423 595.095 392.662 595.095C386.149 595.089 379.637 595.075 373.125 595.063C351.283 595.032 351.283 595.032 329 595C329 639.22 329 683.44 329 729C332.3 728.67 335.6 728.34 339 728C341.471 727.913 343.945 727.863 346.418 727.855C347.088 727.851 347.758 727.848 348.448 727.845C350.623 727.835 352.797 727.833 354.972 727.832C356.506 727.829 358.04 727.825 359.573 727.822C362.771 727.816 365.969 727.814 369.167 727.815C373.244 727.815 377.321 727.801 381.398 727.784C384.56 727.773 387.721 727.771 390.883 727.771C392.385 727.77 393.888 727.766 395.39 727.758C415.017 727.666 415.017 727.666 420.875 732.25C424.85 737.395 426.542 741.347 426.281 747.828C425.654 752.671 423.549 755.713 419.937 758.812C415.467 762.141 412.486 762.148 407.068 762.147C406.239 762.151 405.41 762.155 404.556 762.158C401.762 762.169 398.967 762.173 396.173 762.177C394.176 762.183 392.179 762.19 390.182 762.197C384.743 762.214 379.305 762.225 373.867 762.233C370.47 762.238 367.073 762.244 363.676 762.251C353.051 762.27 342.426 762.284 331.8 762.292C319.531 762.302 307.262 762.328 294.992 762.369C285.513 762.399 276.033 762.414 266.554 762.417C260.891 762.419 255.228 762.428 249.564 762.453C244.234 762.477 238.904 762.481 233.574 762.471C231.62 762.47 229.665 762.477 227.711 762.49C225.038 762.508 222.366 762.501 219.693 762.488C218.539 762.504 218.539 762.504 217.362 762.521C211.853 762.456 207.605 761.067 203 758C198.915 753.496 197.757 748.961 198 743C198.863 738.371 200.467 735.57 203.687 732.125C209.783 728.214 216.061 727.701 223.16 727.773C223.932 727.773 224.703 727.772 225.498 727.772C228.02 727.773 230.541 727.789 233.062 727.805C234.822 727.808 236.582 727.811 238.342 727.813C242.951 727.821 247.561 727.84 252.171 727.863C256.883 727.883 261.596 727.892 266.308 727.902C275.539 727.924 284.769 727.958 294 728C295.22 725.559 295.12 724.007 295.113 721.278C295.113 720.281 295.113 719.285 295.113 718.258C295.108 717.16 295.103 716.063 295.097 714.932C295.096 713.779 295.095 712.626 295.093 711.438C295.089 708.926 295.083 706.413 295.075 703.901C295.062 699.92 295.056 695.939 295.051 691.958C295.039 682.776 295.017 673.594 294.995 664.412C294.974 656.021 294.956 647.629 294.946 639.238C294.941 634.655 294.927 630.073 294.912 625.491C294.909 623.071 294.905 620.652 294.902 618.233C294.897 617.153 294.892 616.074 294.886 614.962C294.886 608.254 295.273 601.668 296 595C294.262 595.025 294.262 595.025 292.489 595.051C281.586 595.21 270.682 595.358 259.778 595.495C254.172 595.566 248.566 595.64 242.96 595.724C237.553 595.804 232.145 595.874 226.737 595.938C224.672 595.964 222.606 595.993 220.54 596.026C217.653 596.072 214.765 596.105 211.877 596.135C211.019 596.152 210.16 596.168 209.275 596.185C203.342 596.228 203.342 596.228 200 594C198.465 593.44 196.922 592.901 195.375 592.375C185.665 588.525 179.426 581.304 175 572C169.972 558.113 171.813 540.659 171.814 526.102C171.812 522.77 171.794 519.438 171.775 516.105C171.748 505.998 171.892 495.971 172.879 485.906C172.955 485.121 173.032 484.335 173.111 483.526C175.955 457.958 191.091 434.139 210.665 417.936C233.615 399.854 260.889 395.823 289.324 395.867ZM225 450C225 450.66 225 451.32 225 452C224.01 452.33 223.02 452.66 222 453C220.413 455.057 219.007 457.061 217.625 459.25C217.227 459.875 216.829 460.501 216.419 461.145C212.732 467.124 210.15 473.313 208 480C207.766 480.692 207.533 481.384 207.293 482.098C203.581 494.675 204.813 509.238 204.814 522.215C204.812 525.324 204.794 528.432 204.775 531.541C204.772 533.544 204.77 535.548 204.769 537.551C204.762 538.467 204.755 539.382 204.748 540.326C204.772 547.247 205.207 553.927 208.75 560C217.684 565.498 233.495 563.149 243.894 563.145C245.646 563.148 247.399 563.152 249.152 563.155C253.868 563.164 258.585 563.167 263.301 563.167C266.253 563.168 269.205 563.17 272.157 563.173C282.469 563.182 292.781 563.186 303.094 563.185C312.688 563.185 322.282 563.195 331.876 563.211C340.137 563.224 348.398 563.23 356.66 563.229C361.584 563.229 366.508 563.231 371.432 563.242C376.056 563.252 380.681 563.252 385.305 563.245C386.998 563.243 388.691 563.246 390.384 563.252C392.702 563.26 395.019 563.255 397.336 563.247C398.631 563.248 399.925 563.248 401.259 563.249C405.916 562.939 411.032 562.5 414.84 559.598C418.105 555.031 419.123 552.031 419.161 546.481C419.171 545.349 419.18 544.216 419.19 543.049C419.194 541.821 419.199 540.593 419.203 539.328C419.209 538.058 419.214 536.789 419.22 535.48C419.23 532.784 419.237 530.087 419.24 527.39C419.244 524.651 419.258 521.913 419.281 519.174C419.724 498.356 419.724 498.356 416 478C415.775 477.256 415.551 476.512 415.32 475.745C409.548 458.846 397.416 445.724 381.691 437.63C365.797 429.87 349.169 428.682 331.789 428.734C330.166 428.733 328.542 428.731 326.919 428.729C323.539 428.726 320.159 428.73 316.779 428.739C312.494 428.751 308.21 428.744 303.925 428.732C300.579 428.725 297.233 428.727 293.886 428.732C292.309 428.734 290.731 428.732 289.153 428.727C265.529 428.672 241.996 431.543 225 450Z" fill="#632B02"/>
<path d="M445.347 151.748C446.7 152.773 448.083 153.759 449.473 154.734C450.229 155.361 450.229 155.361 451 156C451 156.66 451 157.32 451 158C451.557 158.247 452.114 158.495 452.687 158.75C457.781 161.503 461.303 165.342 465 169.699C466.375 171.281 467.795 172.824 469.25 174.332C486.355 192.177 498.172 215.108 507 238C507.472 239.205 507.943 240.41 508.43 241.652C526.74 292.205 522.312 353.647 499.939 402.028C487.509 428.245 487.509 428.245 478 433C472.716 433.527 468.35 433.687 463.562 431.25C462.717 430.507 461.871 429.765 461 429C460.257 428.443 459.515 427.886 458.75 427.312C454.386 421.547 454.812 414.735 455.711 407.871C455.806 407.254 455.902 406.636 456 406C456.66 406.33 457.32 406.66 458 407C473.347 381.143 483.138 352.316 484 322C484.026 321.228 484.051 320.457 484.078 319.662C484.647 300.385 484.261 279.168 477 261C476.34 260.34 475.68 259.68 475 259C475.66 259 476.32 259 477 259C472.191 244.64 466.685 228.97 457.347 216.855C456 215 456 215 456 213C455.01 212.67 454.02 212.34 453 212C451.812 208.937 451.812 208.937 451 206C450.34 206 449.68 206 449 206C448.032 204.584 447.071 203.163 446.151 201.716C425.38 170.762 384.408 150.535 348.978 143.435C345.993 142.89 343.004 142.425 340 142C338.958 141.83 337.917 141.66 336.844 141.485C332.588 140.948 328.44 140.803 324.156 140.762C323.318 140.752 322.48 140.742 321.617 140.732C270.14 140.25 227.747 154.516 190 190C189.313 190.621 188.626 191.243 187.918 191.883C169.835 208.861 158.071 231.711 150.562 255.062C150.315 255.823 150.069 256.584 149.814 257.367C148.213 262.577 147.468 267.569 147 273C146.34 273 145.68 273 145 273C144.909 274.143 144.909 274.143 144.816 275.309C144.733 276.341 144.649 277.374 144.562 278.437C144.481 279.447 144.4 280.456 144.316 281.496C144.092 283.979 143.807 286.458 143.48 288.93C142.709 295.823 142.756 302.759 142.75 309.687C142.749 310.417 142.749 311.147 142.748 311.899C142.796 345.007 150.453 378.418 169.172 406.226C172.314 410.993 172.793 415.431 172 421C169.729 426.579 166.371 430.203 161 433C156.5 434.658 152.382 433.627 148 432C142.087 428.957 139.492 424.497 136 419C135.393 418.069 134.786 417.139 134.16 416.18C122.79 397.624 115.329 376.253 111 355C110.825 354.169 110.65 353.337 110.47 352.481C107.67 338.418 107.694 324.157 107.625 309.875C107.617 308.951 107.609 308.027 107.601 307.075C107.475 287.986 109.57 269.343 115 251C115.232 250.212 115.463 249.424 115.702 248.612C125.276 216.693 142.038 189.926 165 166C165.784 165.175 166.567 164.35 167.375 163.5C172.874 157.844 178.8 152.868 185 148C185.891 147.281 186.781 146.561 187.699 145.82C208.397 129.597 237.492 113.636 264 111C264 110.34 264 109.68 264 109C264.62 108.951 265.24 108.902 265.879 108.851C271.404 108.385 276.882 107.764 282.375 107C341.791 98.9658 398.08 115.49 445.347 151.748Z" fill="#632B02"/>
<path d="M371.75 222.125C373.189 223.391 374.607 224.682 376 226C376.737 226.66 377.474 227.32 378.234 228C394.343 243.109 404.945 264.171 406.126 286.377C406.935 313.711 400.72 337.43 382.062 357.875C363.821 377.154 341.069 387.029 314.636 387.977C287.69 388.207 263.305 379.162 243.875 360.375C233.007 349.455 221 331.842 221 316C220.34 315.67 219.68 315.34 219 315C218.171 277.779 218.171 277.779 223 264C223.277 263.099 223.554 262.198 223.84 261.269C226.523 253.491 231.396 246.749 236 240C236.81 238.799 236.81 238.799 237.636 237.574C241.155 232.609 245.293 228.827 250 225C250.786 224.339 251.572 223.677 252.383 222.996C287.141 194.285 336.117 194.6 371.75 222.125ZM288 240C287.21 240.374 286.419 240.748 285.605 241.133C270.437 248.936 261.41 260.5 255 276C249.978 291.856 250.899 308.466 258.312 323.437C265.831 337.502 278.044 346.673 293.054 352.105C310.778 356.908 328.557 354.443 344.66 346.027C357.445 338.266 367.612 325.451 371.569 310.908C374.91 294.693 372.826 277.442 363.758 263.406C353.343 249.15 340.389 239.611 323 236C319.175 235.593 315.406 235.522 311.562 235.562C310.556 235.569 309.55 235.576 308.513 235.583C301.09 235.744 294.725 236.686 288 240Z" fill="#632B02"/>
</svg>
