<svg width="274" height="229" viewBox="0 0 274 229" fill="none" xmlns="http://www.w3.org/2000/svg">
<g clip-path="url(#clip0_68_742)">
<path d="M70.6876 77.9374C71.9 77.9509 71.9 77.9509 73.1368 77.9647C74.0592 77.9821 74.0592 77.9821 75.0001 77.9999C75.1239 79.1343 75.2476 80.2686 75.3751 81.4374C75.5814 82.613 75.7876 83.7886 76.0001 84.9999C76.9901 85.4949 76.9901 85.4949 78.0001 85.9999C79.0785 87.5446 80.0909 89.1359 81.0626 90.7499C81.5898 91.611 82.1171 92.4721 82.6603 93.3593C83.9837 95.9675 84.5001 98.1406 85.0001 101C86.368 103.052 87.8635 104.846 89.5001 106.687C90.9072 108.857 91.5098 110.433 92.2501 112.875C93.8274 117.982 96.1936 122.582 98.6632 127.302C101 131.807 101 131.807 101 134C101.66 134.33 102.32 134.66 103 135C103.33 135.66 103.66 136.32 104 137C102.563 139.625 102.563 139.625 101 142C98.3601 141.67 95.7201 141.34 93.0001 141C92.6701 140.01 92.3401 139.02 92.0001 138C88.0401 137.34 84.0801 136.68 80.0001 136C79.6701 136.99 79.3401 137.98 79.0001 139C78.0198 140.348 77.0204 141.682 76.0001 143C75.6701 143.66 75.3401 144.32 75.0001 145C73.4212 147.368 72.0247 149.067 70.0001 151C70.3301 151.99 70.6601 152.98 71.0001 154C72.1139 153.979 73.2276 153.959 74.3751 153.937C78.0001 154 78.0001 154 80.0001 155C89.6428 156.486 99.4312 155.994 109.145 155.697C110.342 155.68 111.54 155.662 112.774 155.644C114.389 155.603 114.389 155.603 116.037 155.562C119.711 156.105 121.292 157.529 124 160C124.66 160.33 125.32 160.66 126 161C127.221 164.662 127.149 168 127.125 171.812C127.12 172.642 127.115 173.473 127.11 174.328C127.093 176.318 127.071 178.308 127.046 180.299C127.012 183.071 126.984 185.843 126.962 188.615C126.925 192.895 126.864 197.174 126.791 201.453C126.764 203.193 126.743 204.932 126.73 206.671C126.708 209.147 126.662 211.622 126.609 214.098C126.608 214.85 126.607 215.602 126.606 216.377C126.516 219.542 126.415 221.509 124.334 223.971C121.416 225.257 119.237 225.372 116.047 225.363C114.877 225.364 113.707 225.365 112.501 225.366C111.263 225.348 110.026 225.33 108.75 225.312C107.494 225.303 106.237 225.293 104.942 225.283C86.3695 225.027 86.3695 225.027 78.0001 223C77.6701 222.34 77.3401 221.68 77.0001 221C74.5132 220.642 72.0522 220.556 69.5431 220.441C66.5976 219.93 65.2536 218.912 63.0001 217C61.6749 216.317 60.342 215.649 59.0001 215C53.9408 211.627 49.9856 208.052 45.7814 203.707C44.5903 202.491 44.5903 202.491 43.3751 201.25C42.6197 200.471 41.8643 199.693 41.0861 198.891C39.0547 196.794 39.0547 196.794 36.0001 196C35.6701 195.01 35.3401 194.02 35.0001 193C34.3401 192.01 33.6801 191.02 33.0001 190C32.3164 188.675 31.6505 187.341 31.0001 186C30.6495 185.34 30.2989 184.68 29.9376 184C29.0001 182 29.0001 182 28.5626 179.937C27.8724 177.56 26.8024 176.658 25.0001 175C24.3401 174.01 23.6801 173.02 23.0001 172C22.5051 171.402 22.0101 170.804 21.5001 170.187C19.6911 167.549 18.8056 165.087 18.0001 162C18.4951 161.01 18.4951 161.01 19.0001 160C18.3401 159.67 17.6801 159.34 17.0001 159C16.6668 156.667 16.3335 154.333 16.0001 152C15.3401 151.67 14.6801 151.34 14.0001 151C14.3301 150.01 14.6601 149.02 15.0001 148C14.3401 147.67 13.6801 147.34 13.0001 147C12.5932 135.831 12.3682 122.688 20.0001 113.625C22.4472 110.413 23.082 107.902 24.0001 104C23.0101 103.67 22.0201 103.34 21.0001 103C20.5801 101.444 20.1901 99.8794 19.8126 98.3124C19.5922 97.4423 19.3718 96.5721 19.1447 95.6757C18.95 92.0719 19.5948 90.6854 22.0001 87.9999C25.3986 87.1093 25.3986 87.1093 29.3751 86.7499C30.6822 86.621 31.9893 86.4921 33.3361 86.3593C35.1498 86.1814 35.1498 86.1814 37.0001 85.9999C41.7915 85.1713 46.4614 83.8594 51.1603 82.621C54.0001 81.9999 54.0001 81.9999 58.0001 81.9999C58.3301 81.3399 58.6601 80.6799 59.0001 79.9999C59.9901 80.3299 60.9801 80.6599 62.0001 80.9999C62.3301 80.3399 62.6601 79.6799 63.0001 78.9999C65.8822 78.0392 67.6986 77.8941 70.6876 77.9374ZM61.1693 87.3807C56.7863 88.6318 52.3213 89.5648 47.8751 90.5624C46.4114 90.894 46.4114 90.894 44.9181 91.2323C40.6202 92.2027 36.3235 93.1488 32.0001 93.9999C32.5364 94.6393 33.0726 95.2786 33.6251 95.9374C35.3719 99.8279 34.8771 101.905 33.8087 105.933C32.7566 108.622 31.0884 110.042 29.0001 112C28.3176 114.329 27.6496 116.662 27.0001 119C26.0101 119.66 25.0201 120.32 24.0001 121C23.6701 121.99 23.3401 122.98 23.0001 124C22.2267 125.794 22.2267 125.794 21.4376 127.625C17.7961 137.509 20.6969 148.627 24.5001 158.125C25.7772 160.946 25.7772 160.946 27.5626 162.5C29.0001 164 29.0001 164 29.8126 167.187C31.3139 172.007 33.8397 175.137 37.0001 179C38.0211 180.33 38.0211 180.33 39.0626 181.687C41.236 184.281 43.5964 186.62 46.0001 189C46.1097 187.88 46.2193 186.759 46.3322 185.605C46.4916 184.133 46.6518 182.66 46.8126 181.187C46.8829 180.449 46.9531 179.711 47.0255 178.951C47.6497 173.434 47.6497 173.434 49.4806 171.168C49.982 170.782 50.4835 170.397 51.0001 170C52.0345 168.017 53.0325 166.016 54.0001 164C56.3523 159.856 59.0292 155.934 61.6954 151.988C63.0273 150.043 63.0273 150.043 64.0001 148C64.6601 147.01 65.3201 146.02 66.0001 145C66.2683 144.216 66.5364 143.432 66.8126 142.625C68.2975 139.343 70.459 137.541 73.0001 135C73.7442 133.792 74.4527 132.562 75.1251 131.312C77.0001 128 77.0001 128 80.0001 126C82.2501 126.687 82.2501 126.687 85.0001 128C86.2691 128.546 87.54 129.088 88.8126 129.625C89.8645 130.079 90.9164 130.532 92.0001 131C90.8271 127.03 89.517 124.251 87.0001 121C86.6907 120.196 86.3814 119.391 86.0626 118.562C85.0754 115.839 85.0754 115.839 82.8751 113.375C81.0001 111 81.0001 111 81.0001 108C80.5464 107.587 80.0926 107.175 79.6251 106.75C78.0001 105 78.0001 105 77.1251 101.687C76.1072 98.3507 75.6272 97.3029 73.4376 94.8749C71.0233 92.0272 70.3213 90.6398 70.0001 86.9999C66.6626 85.6649 64.5083 86.3749 61.1693 87.3807ZM87.0001 167C85.8245 167.186 85.8245 167.186 84.6251 167.375C80.9775 168.243 79.4326 170.23 77.0001 173C76.6701 173.66 76.3401 174.32 76.0001 175C75.1029 175.124 75.1029 175.124 74.1876 175.25C70.7813 176.418 69.8235 179 68.0001 182C67.4639 182.619 66.9276 183.237 66.3751 183.875C62.3684 190.067 62.5273 197.019 64.0001 204C65.169 207.073 65.169 207.073 67.0001 209C67.9901 209 68.9801 209 70.0001 209C70.3301 209.66 70.6601 210.32 71.0001 211C73.335 211.883 73.335 211.883 76.1251 212.562C77.0558 212.811 77.9865 213.06 78.9454 213.316C85.5742 214.8 91.9287 215.156 98.6876 215.125C99.9493 215.131 99.9493 215.131 101.236 215.137C102.049 215.135 102.862 215.134 103.699 215.133C104.43 215.132 105.16 215.13 105.913 215.129C108.051 214.997 109.943 214.584 112 214C114.548 202.457 114.136 190.388 114.063 178.625C114.058 177.195 114.053 175.766 114.049 174.336C114.038 170.89 114.021 167.445 114 164C110.063 163.913 106.126 163.859 102.188 163.812C101.068 163.787 99.9485 163.762 98.795 163.736C97.1853 163.722 97.1853 163.722 95.5431 163.707C94.5533 163.691 93.5636 163.675 92.5438 163.659C89.5734 164.057 88.908 164.794 87.0001 167Z" fill="#632B02"/>
<path d="M235 82C245.049 83.0049 245.049 83.0049 248.688 86.8125C249.949 89.877 250.384 91.7391 250 95C250.99 95.495 250.99 95.495 252 96C252.333 98 252.667 100 253 102C253.66 102.33 254.32 102.66 255 103C254.67 103.66 254.34 104.32 254 105C254.66 105.33 255.32 105.66 256 106C255.67 106.66 255.34 107.32 255 108C255.66 108.33 256.32 108.66 257 109C256.67 109.66 256.34 110.32 256 111C256.66 111.33 257.32 111.66 258 112C258.676 114.417 259.191 116.723 259.625 119.188C259.757 119.925 259.889 120.662 260.025 121.422C261.588 131.219 261.269 141.112 261 151C260.34 151 259.68 151 259 151C258.67 154.3 258.34 157.6 258 161C257.34 161 256.68 161 256 161C256.33 161.99 256.66 162.98 257 164C256.34 164 255.68 164 255 164C255.041 164.763 255.082 165.526 255.125 166.312C255 169 255 169 253 172C252.317 173.325 251.649 174.658 251 176C250 178 250 178 248 181C247.67 181.66 247.34 182.32 247 183C246.34 183.784 245.68 184.567 245 185.375C242.899 187.774 242.899 187.774 242.438 190.25C242.293 190.827 242.149 191.405 242 192C240.515 192.495 240.515 192.495 239 193C237.25 194.689 237.25 194.689 235.562 196.75C234.648 197.829 234.648 197.829 233.715 198.93C229.999 203.222 229.999 203.222 227 208C221 210 221 210 218.875 210.438C218.256 210.623 217.637 210.809 217 211C216.67 211.66 216.34 212.32 216 213C214 213.667 212 214.333 210 215C209.67 215.66 209.34 216.32 209 217C198.421 219.796 187.758 218.903 177 218C176.974 218.626 176.948 219.253 176.922 219.898C176.837 221.124 176.837 221.124 176.75 222.375C176.704 223.187 176.657 223.999 176.609 224.836C176 227 176 227 174.176 228.277C170.018 229.658 166.107 229.369 162 228C161.67 227.01 161.34 226.02 161 225C158.801 220.093 155.354 216.159 152 212C151.182 210.975 151.182 210.975 150.348 209.93C149.841 209.314 149.334 208.697 148.812 208.062C148.365 207.517 147.918 206.972 147.457 206.41C146.032 204.869 146.032 204.869 143.887 204.059C143.264 203.709 142.641 203.36 142 203C141.647 201.672 141.315 200.338 141 199C139.05 196.886 136.952 195.019 134.812 193.098C132.746 190.706 132.345 189.102 132 186C133.485 185.505 133.485 185.505 135 185C136.515 182.728 137.78 180.44 139 178C139.598 177.443 140.196 176.886 140.812 176.312C143.993 172.95 145.932 169.137 148 165C148.639 164.216 149.279 163.433 149.938 162.625C151.993 160.2 151.993 160.2 153 157.938C154.265 155.487 156.057 153.943 158 152C159.192 149.95 159.192 149.95 160 148C161 146 161 146 163 144C163.33 143.34 163.66 142.68 164 142C164.825 141.216 165.65 140.433 166.5 139.625C168.817 137.193 169.641 136.233 170 133C173.952 134.168 176.783 135.449 180 138C180.99 138.33 181.98 138.66 183 139C183.856 144.886 184 149.877 184 156C189.94 156.66 195.88 157.32 202 158C201.01 157.01 200.02 156.02 199 155C199.312 152.812 199.312 152.812 200 151C199.34 150.67 198.68 150.34 198 150C197.667 148 197.333 146 197 144C196.01 143.505 196.01 143.505 195 143C195 141.68 195 140.36 195 139C194.01 138.505 194.01 138.505 193 138C192.27 136.36 191.612 134.687 191 133C188.866 127.547 186.729 122.185 184 117C183.34 117 182.68 117 182 117C181.251 113.337 180.762 110.576 182 107C183.114 106.876 183.114 106.876 184.25 106.75C187.119 106.212 187.119 106.212 189 104C191.396 101.604 192.747 101.635 196 101C197.707 99.7194 199.374 98.3823 201 97C203.932 95.069 206.487 93.4845 210 93C210.99 93.495 210.99 93.495 212 94C212.33 93.01 212.66 92.02 213 91C214.65 91 216.3 91 218 91C218.33 90.34 218.66 89.68 219 89C221.089 88.3262 222.804 88 225 88C225.33 87.34 225.66 86.68 226 86C226.99 86.495 226.99 86.495 228 87C228.33 86.34 228.66 85.68 229 85C229.99 85 230.98 85 232 85C232.33 84.34 232.66 83.68 233 83C233.99 83.495 233.99 83.495 235 84C235 83.34 235 82.68 235 82ZM224 95C223.67 95.66 223.34 96.32 223 97C222.092 97.1444 221.185 97.2887 220.25 97.4375C216.71 98.0501 214.97 99.0198 212 101C207.627 103.909 204.214 106.064 199 107C195.551 108.44 192.618 109.83 190.812 113.25C191.09 117.317 192.764 120.618 195 124C195.66 124.33 196.32 124.66 197 125C197.333 126.667 197.667 128.333 198 130C199.669 133.87 200.452 135.635 204 138C204.969 138.825 205.939 139.65 206.938 140.5C210.41 143.335 212.946 144.669 217.188 146C220 147 220 147 221 149C228.209 151.884 236.289 151.99 243.75 150C244.864 149.505 244.864 149.505 246 149C246 148.34 246 147.68 246 147C246.66 146.67 247.32 146.34 248 146C250.224 142.612 250.413 139.359 250.688 135.375C250.774 134.228 250.86 133.08 250.949 131.898C251.223 129.06 251.223 129.06 250 127C249.876 125.804 249.752 124.607 249.625 123.375C248.406 113.333 242.693 99.6601 235 93C230.963 90.912 227.776 93.0761 224 95ZM190 112C191 114 191 114 191 114L190 112ZM167.5 151.375C165.912 152.944 165.912 152.944 165 155C164.34 155.66 163.68 156.32 163 157C161.987 158.323 160.989 159.658 160 161C159.006 162.297 159.006 162.297 157.992 163.621C157.294 164.551 156.595 165.48 155.875 166.438C155.171 167.364 154.467 168.291 153.742 169.246C152.029 171.954 151.377 173.849 151 177C150.01 177.33 149.02 177.66 148 178C147.67 178.66 147.34 179.32 147 180C146 181.667 145 183.333 144 185C143.67 185.66 143.34 186.32 143 187C142.01 187.495 142.01 187.495 141 188C142.47 191.399 144.38 193.65 147 196.25C148.052 197.31 148.052 197.31 149.125 198.391C150.841 200.217 150.841 200.217 153 200C153.248 200.743 153.495 201.485 153.75 202.25C155.134 205.296 156.61 206.676 159 209C161.061 211.622 163.037 214.304 165 217C166.542 215.625 166.542 215.625 168 214C168 213.34 168 212.68 168 212C169.018 211.985 170.037 211.971 171.086 211.956C174.896 211.897 178.705 211.82 182.514 211.738C184.157 211.704 185.8 211.676 187.443 211.654C189.817 211.62 192.189 211.567 194.562 211.512C195.287 211.505 196.011 211.499 196.757 211.492C203.536 211.301 209.85 209.599 215 204.938C215.577 204.431 216.155 203.924 216.75 203.402C218.222 202.064 218.222 202.064 218 200C218.619 199.917 219.238 199.835 219.875 199.75C222.135 199.221 222.135 199.221 222.938 197.25C223.288 196.507 223.639 195.765 224 195C224.743 194.278 225.485 193.556 226.25 192.812C231.386 187.559 235.932 181.186 237.438 173.875C238 172 238 172 239.5 170.562C241.466 168.515 241.627 166.763 242 164C239.14 162.659 239.14 162.659 237.092 163.921C236.402 164.277 235.711 164.633 235 165C232.863 165.259 232.863 165.259 230.527 165.266C229.198 165.272 229.198 165.272 227.841 165.278C226.404 165.264 226.404 165.264 224.938 165.25C223.434 165.242 223.434 165.242 221.901 165.234C213.873 165.136 205.882 164.705 197.875 164.125C196.787 164.047 195.699 163.968 194.578 163.888C173.19 162.19 173.19 162.19 171 160C170.767 158.318 170.587 156.629 170.438 154.938C170.312 153.559 170.312 153.559 170.184 152.152C170.123 151.442 170.062 150.732 170 150C168.784 149.887 168.784 149.887 167.5 151.375Z" fill="#632B02"/>
<path d="M140.5 -0.125C141.481 -0.128867 142.462 -0.132734 143.473 -0.136719C150.767 -0.127006 157.922 0.115874 165 2C165 2.66 165 3.32 165 4C165.619 3.81437 166.238 3.62875 166.875 3.4375C169 3 169 3 171 4C171 4.66 171 5.32 171 6C172.114 6.0825 173.227 6.165 174.375 6.25C175.571 6.4975 176.768 6.745 178 7C178.712 8.30995 179.374 9.64707 180 11C181.638 12.6315 181.638 12.6315 183.5 14.0625C186.403 16.3813 188.292 18.5372 189.938 21.9375C191.093 24.1814 192.416 26.0362 194 28C194.436 28.5453 194.871 29.0905 195.32 29.6523C196.917 31.2265 196.917 31.2265 199.121 30.9688C199.886 30.8141 200.65 30.6594 201.438 30.5C205.726 29.8456 205.726 29.8456 208.438 31.375C208.953 31.9112 209.469 32.4475 210 33C210.66 33.33 211.32 33.66 212 34C212.821 37.0798 213.359 39.127 212.125 42.125C211.568 43.0531 211.568 43.0531 211 44C210.632 45.3242 210.288 46.6561 210 48C209.34 48 208.68 48 208 48C208.206 48.6187 208.412 49.2375 208.625 49.875C208.749 50.5763 208.873 51.2775 209 52C208.01 52.99 208.01 52.99 207 54C206.166 56.3285 206.166 56.3285 205.492 59.0508C205.096 60.5638 205.096 60.5638 204.691 62.1074C204.287 63.6939 204.287 63.6939 203.875 65.3125C203.598 66.3586 203.321 67.4046 203.035 68.4824C201.84 73.1077 200.827 77.1958 201 82C200.34 82 199.68 82 199 82C199 83.98 199 85.96 199 88C190.436 88 181.869 87.7768 173.307 87.6277C170.783 87.5845 168.26 87.5428 165.736 87.5027C162.085 87.4445 158.433 87.3809 154.781 87.3164C153.666 87.2997 152.551 87.283 151.402 87.2658C132.367 86.9111 132.367 86.9111 128 84C127.672 81.7227 127.672 81.7227 127.75 79.0625C127.765 78.1872 127.781 77.312 127.797 76.4102C128 74 128 74 129 71C129.99 70.67 130.98 70.34 132 70C134.522 68.8534 136.016 67.9838 138 66C138.99 65.67 139.98 65.34 141 65C141.495 64.01 141.495 64.01 142 63C140.515 62.505 140.515 62.505 139 62C137.875 59.0625 137.875 59.0625 137 56C136.67 55.34 136.34 54.68 136 54C131.785 55.5249 130.191 58.2562 127.812 61.9375C127.118 62.9984 126.423 64.0593 125.707 65.1523C123.904 67.9271 123.904 67.9271 123 71C121.667 73 120.333 75 119 77C118.536 77.9591 118.536 77.9591 118.062 78.9375C117 81 117 81 115.438 82.9375C113.787 85.3061 113.487 87.1843 113 90C100.096 91.7613 100.096 91.7613 96.3125 89.125C95.5494 88.4237 94.7862 87.7225 94 87C93.01 86.505 93.01 86.505 92 86C90.9275 85.3606 89.855 84.7212 88.75 84.0625C85.6057 82.2497 82.4938 81.0226 79 80C79 79.34 79 78.68 79 78C77.35 77.67 75.7 77.34 74 77C74 76.34 74 75.68 74 75C72.35 74.67 70.7 74.34 69 74C69 73.34 69 72.68 69 72C66.5918 70.2731 64.1843 68.6514 61.6875 67.0625C60.3143 66.1817 58.9431 65.2976 57.5742 64.4102C56.9615 64.0197 56.3488 63.6291 55.7175 63.2268C53.9105 61.9361 52.4179 60.7131 51 59C51.2578 56.2227 51.2578 56.2227 52.125 53.0625C52.5311 51.5021 52.5311 51.5021 52.9453 49.9102C53.9692 47.085 55.1246 45.3102 57 43C57.6735 41.3361 58.3409 39.6697 59 38C59.66 37.34 60.32 36.68 61 36C61.33 35.34 61.66 34.68 62 34C64 31 64 31 66 28.5625C68.0214 26.1767 68.0214 26.1767 69 23.8125C70.2816 21.4896 71.6688 21.1656 74 20C74.33 19.3194 74.66 18.6388 75 17.9375C75.33 17.2981 75.66 16.6587 76 16C78 15.375 78 15.375 80 15C80.66 14.34 81.32 13.68 82 13C82.8456 12.835 83.6913 12.67 84.5625 12.5C85.3669 12.335 86.1712 12.17 87 12C87.33 11.34 87.66 10.68 88 10C91.4288 8.57832 94.647 7.87578 98.3125 7.5C99.5294 7.335 100.746 7.17 102 7C102.33 6.34 102.66 5.68 103 5C105.039 4.4375 105.039 4.4375 107.625 4C110.7 3.44606 113.56 2.83305 116.562 1.9375C124.408 -0.202173 132.416 -0.156868 140.5 -0.125ZM130 8C128 8 126 8 124 8C122.325 8.28605 120.656 8.61781 119 9C117.333 9.33333 115.667 9.66667 114 10C114 10.66 114 11.32 114 12C114.739 12.4409 115.477 12.8817 116.238 13.3359C119.205 15.1238 120.965 16.9859 123.188 19.625C125.728 22.7766 125.728 22.7766 129 25C129.333 26.3333 129.667 27.6667 130 29C131.829 32.6653 131.829 32.6653 135 35C135.124 35.5362 135.248 36.0725 135.375 36.625C136.31 40.1764 138.058 42.8806 140 46C140.66 46.33 141.32 46.66 142 47C142.124 47.7219 142.248 48.4438 142.375 49.1875C143.397 53.786 146.292 57.1105 149.188 60.75C151.614 65.1012 151.806 69.087 152 74C151.216 74.1238 150.433 74.2475 149.625 74.375C146.859 74.7912 146.859 74.7912 145 77C144.01 77.495 144.01 77.495 143 78C143 78.66 143 79.32 143 80C167.75 80.495 167.75 80.495 193 81C193.33 78.36 193.66 75.72 194 73C194.654 70.9957 195.321 68.996 196 67C196.306 65.4193 196.596 63.8356 196.875 62.25C197.748 57.5594 199.324 53.4636 201.293 49.1289C202.284 46.8545 202.284 46.8545 201 44C200.257 44.1031 199.515 44.2062 198.75 44.3125C196 44 196 44 194 42C192.017 39.0248 190.095 36.0255 188.246 32.9648C186.93 30.8893 185.476 28.9648 184 27C182.516 24.717 181.053 22.4223 179.598 20.1211C177.928 17.9042 176.28 16.5586 174 15C172.979 14.1956 172.979 14.1956 171.938 13.375C168.378 10.8486 164.16 10.3698 159.961 9.5C158 9 158 9 157 8C156.175 8 155.35 8 154.5 8C153.675 8 152.85 8 152 8C151.505 7.505 151.505 7.505 151 7C149.523 6.90119 148.042 6.86921 146.562 6.86719C145.668 6.8659 144.773 6.86461 143.852 6.86328C142.44 6.86908 142.44 6.86908 141 6.875C140.059 6.87113 139.118 6.86727 138.148 6.86328C136.807 6.86521 136.807 6.86521 135.438 6.86719C134.198 6.86888 134.198 6.86888 132.934 6.87061C130.993 6.78735 130.993 6.78735 130 8ZM78 35C76.0088 35.6926 74.0079 36.3575 72 37C68.3206 38.825 68.3206 38.825 66 42C63.6667 46.6667 61.3333 51.3333 59 56C62.1754 59.4258 62.1754 59.4258 66 62C66.99 62.66 67.98 63.32 69 64C70.8076 65.1949 72.6206 66.3817 74.4375 67.5625C75.385 68.1825 76.3324 68.8026 77.3086 69.4414C79.664 70.8054 81.3871 71.4376 84 72C85 73 86 74 87 75C90.3702 76.5687 90.3702 76.5687 94 77C94.5981 77.6394 95.1963 78.2788 95.8125 78.9375C98.267 81.2517 99.7052 81.6339 103 82C103.254 81.3967 103.508 80.7934 103.77 80.1719C105.532 76.0783 107.204 72.4947 110 69C110.598 67.9275 111.196 66.855 111.812 65.75C113.791 62.2039 116.152 59.058 118.625 55.8438C120.108 53.9213 120.108 53.9213 121.562 51.375C122.832 49.2769 124.126 47.6905 125.75 45.875C126.493 44.9262 127.235 43.9775 128 43C126.643 38.9285 124.661 38.1122 121 36C119.336 35.6518 117.67 35.316 116 35C115.536 34.5308 115.072 34.0616 114.594 33.5781C110.014 29.043 103.109 28.7637 97 28.625C89.5175 28.7949 83.359 29.5829 78 35ZM135 51C134.67 51.66 134.34 52.32 134 53C134.66 53 135.32 53 136 53C135.67 52.34 135.34 51.68 135 51Z" fill="#632B02"/>
<path d="M42 201C42.99 201.99 43.98 202.98 45 204C44.01 203.67 43.02 203.34 42 203C42 202.34 42 201.68 42 201Z" fill="black"/>
<path d="M51 60C51.66 60.66 52.32 61.32 53 62C52.34 62 51.68 62 51 62C51 61.34 51 60.68 51 60Z" fill="black"/>
<path d="M219 211C221 212 221 212 221 212L219 211Z" fill="black"/>
<path d="M50 209C52 210 52 210 52 210L50 209Z" fill="black"/>
<path d="M79 171C81 172 81 172 81 172L79 171Z" fill="black"/>
<path d="M193 111C195 112 195 112 195 112L193 111Z" fill="black"/>
<path d="M195 110C197 111 197 111 197 111L195 110Z" fill="black"/>
<path d="M226 95C228 96 228 96 228 96L226 95Z" fill="black"/>
<path d="M148 75C150 76 150 76 150 76L148 75Z" fill="black"/>
<path d="M72 75C74 76 74 76 74 76L72 75Z" fill="black"/>
<path d="M67 72C69 73 69 73 69 73L67 72Z" fill="black"/>
<path d="M61 68C63 69 63 69 63 69L61 68Z" fill="black"/>
<path d="M58 66C60 67 60 67 60 67L58 66Z" fill="black"/>
</g>
<defs>
<clipPath id="clip0_68_742">
<rect width="274" height="229" fill="white"/>
</clipPath>
</defs>
</svg>
